<svg version="1.1" width="1920" height="1393" viewBox="-213 -1194 1920 1393" font-family="Hermit" xmlns="http://www.w3.org/2000/svg">
<rect x="-213" y="-1194" width="100%" height="100%" fill="rgb(204, 204, 204)" />

<line x1="71.1" y1="-85.3" x2="321.2" y2="-688.7" style="stroke:rgb(136, 136, 136);stroke-width:3" />
<line x1="416.1" y1="-917.6" x2="1422.2" y2="-113.8" style="stroke:rgb(136, 136, 136);stroke-width:3" />
<line x1="71.1" y1="-85.3" x2="1411.3" y2="-113.5" style="stroke:rgb(136, 136, 136);stroke-width:3" />
<line x1="71.1" y1="-85.3" x2="321.1" y2="-163.1" style="stroke:rgb(136, 136, 136);stroke-width:3" />
<line x1="416.1" y1="-917.6" x2="641.9" y2="-433.0" style="stroke:rgb(136, 136, 136);stroke-width:3" />
<line x1="641.9" y1="-433.0" x2="711.1" y2="-284.4" style="stroke:rgb(136, 136, 136);stroke-width:3" />
<line x1="1411.3" y1="-113.5" x2="1422.2" y2="-113.8" style="stroke:rgb(136, 136, 136);stroke-width:3" />
<line x1="321.1" y1="-163.1" x2="711.1" y2="-284.4" style="stroke:rgb(136, 136, 136);stroke-width:3" />
<line x1="321.2" y1="-688.7" x2="416.1" y2="-917.6" style="stroke:rgb(136, 136, 136);stroke-width:3" />
<line x1="641.9" y1="-433.0" x2="416.1" y2="-917.6" style="stroke:rgb(255, 17, 17);stroke-width:3" />
<circle cx="416.1" cy="-917.6" r="20" fill="rgb(255, 17, 17)" />
<text x="436.1" y="-937.6" font-size="32" text-anchor="bottom-left" fill="black">b</text>
<line x1="416.1" y1="-917.6" x2="321.2" y2="-688.7" style="stroke:rgb(255, 17, 17);stroke-width:3" />
<line x1="321.2" y1="-688.7" x2="71.1" y2="-85.3" style="stroke:rgb(255, 17, 17);stroke-width:3" />
<circle cx="71.1" cy="-85.3" r="20" fill="rgb(255, 17, 17)" />
<text x="91.1" y="-105.3" font-size="32" text-anchor="bottom-left" fill="black">a</text>
<line x1="71.1" y1="-85.3" x2="321.1" y2="-163.1" style="stroke:rgb(255, 17, 17);stroke-width:3" />
<line x1="321.1" y1="-163.1" x2="71.1" y2="-85.3" style="stroke:rgb(255, 17, 17);stroke-width:3" />
<circle cx="71.1" cy="-85.3" r="20" fill="rgb(255, 17, 17)" />
<text x="91.1" y="-105.3" font-size="32" text-anchor="bottom-left" fill="black">a</text>
<line x1="71.1" y1="-85.3" x2="1411.3" y2="-113.5" style="stroke:rgb(255, 17, 17);stroke-width:3" />
<line x1="775.9" y1="-495.4" x2="641.9" y2="-433.0" style="stroke:rgb(0, 162, 232);stroke-width:3" />
<line x1="1411.3" y1="-113.5" x2="1408.5" y2="-248.8" style="stroke:rgb(0, 162, 232);stroke-width:3" />
<circle cx="775.9" cy="-495.4" r="20" fill="rgb(0, 162, 232)" />
<text x="795.9" y="-515.4" font-size="32" text-anchor="bottom-left" fill="black">Start</text>
<circle cx="1408.5" cy="-248.8" r="20" fill="rgb(0, 162, 232)" />
<text x="1428.5" y="-268.8" font-size="32" text-anchor="bottom-left" fill="black">Finiš</text>
<line x1="321.1" y1="-163.1" x2="329.6" y2="-135.6" style="stroke:rgb(0, 162, 232);stroke-width:3" />
<circle cx="329.6" cy="-135.6" r="20" fill="rgb(0, 162, 232)" />
<text x="349.6" y="-155.6" font-size="32" text-anchor="bottom-left" fill="black">p1</text>
<line x1="321.2" y1="-688.7" x2="174.1" y2="-749.7" style="stroke:rgb(0, 162, 232);stroke-width:3" />
<circle cx="174.1" cy="-749.7" r="20" fill="rgb(0, 162, 232)" />
<text x="194.1" y="-769.7" font-size="32" text-anchor="bottom-left" fill="black">p2</text>

</svg>
