<svg version="1.1" width="1920" height="1279" viewBox="-127 -1023 1920 1279" font-family="Hermit" xmlns="http://www.w3.org/2000/svg">
<rect x="-127" y="-1023" width="100%" height="100%" fill="rgb(204, 204, 204)" />

<line x1="42.7" y1="-51.2" x2="192.7" y2="-413.2" style="stroke:rgb(136, 136, 136);stroke-width:3" />
<line x1="249.6" y1="-550.5" x2="504.9" y2="-346.6" style="stroke:rgb(136, 136, 136);stroke-width:3" />
<line x1="938.7" y1="-597.3" x2="1319.2" y2="-430.9" style="stroke:rgb(136, 136, 136);stroke-width:3" />
<line x1="42.7" y1="-51.2" x2="192.6" y2="-97.9" style="stroke:rgb(136, 136, 136);stroke-width:3" />
<line x1="249.6" y1="-550.5" x2="426.7" y2="-170.7" style="stroke:rgb(136, 136, 136);stroke-width:3" />
<line x1="426.7" y1="-170.7" x2="426.7" y2="-128.0" style="stroke:rgb(136, 136, 136);stroke-width:3" />
<line x1="426.7" y1="-128.0" x2="707.0" y2="-88.7" style="stroke:rgb(136, 136, 136);stroke-width:3" />
<line x1="249.6" y1="-550.5" x2="446.3" y2="-563.9" style="stroke:rgb(136, 136, 136);stroke-width:3" />
<line x1="1621.3" y1="-298.7" x2="1394.3" y2="-230.6" style="stroke:rgb(136, 136, 136);stroke-width:3" />
<line x1="938.7" y1="-597.3" x2="909.7" y2="-417.6" style="stroke:rgb(136, 136, 136);stroke-width:3" />
<line x1="504.9" y1="-346.6" x2="558.7" y2="-303.6" style="stroke:rgb(136, 136, 136);stroke-width:3" />
<line x1="707.0" y1="-88.7" x2="853.3" y2="-68.3" style="stroke:rgb(136, 136, 136);stroke-width:3" />
<line x1="192.6" y1="-97.9" x2="300.5" y2="-131.4" style="stroke:rgb(136, 136, 136);stroke-width:3" />
<line x1="192.7" y1="-413.2" x2="249.6" y2="-550.5" style="stroke:rgb(136, 136, 136);stroke-width:3" />
<line x1="1319.2" y1="-430.9" x2="1621.3" y2="-298.7" style="stroke:rgb(136, 136, 136);stroke-width:3" />
<line x1="865.9" y1="-145.9" x2="853.3" y2="-68.3" style="stroke:rgb(136, 136, 136);stroke-width:3" />
<line x1="909.7" y1="-417.6" x2="865.9" y2="-145.9" style="stroke:rgb(136, 136, 136);stroke-width:3" />
<line x1="446.3" y1="-563.9" x2="938.7" y2="-597.3" style="stroke:rgb(136, 136, 136);stroke-width:3" />
<line x1="300.5" y1="-131.4" x2="426.7" y2="-170.7" style="stroke:rgb(136, 136, 136);stroke-width:3" />
<line x1="558.7" y1="-303.6" x2="853.3" y2="-68.3" style="stroke:rgb(136, 136, 136);stroke-width:3" />
<line x1="1394.3" y1="-230.6" x2="853.3" y2="-68.3" style="stroke:rgb(136, 136, 136);stroke-width:3" />
<line x1="504.9" y1="-346.6" x2="558.7" y2="-303.6" style="stroke:rgb(255, 17, 17);stroke-width:3" />
<line x1="558.7" y1="-303.6" x2="853.3" y2="-68.3" style="stroke:rgb(255, 17, 17);stroke-width:3" />
<circle cx="853.3" cy="-68.3" r="20" fill="rgb(255, 17, 17)" />
<text x="873.3" y="-88.3" font-size="24" text-anchor="start" fill="black">c</text>
<line x1="853.3" y1="-68.3" x2="865.9" y2="-145.9" style="stroke:rgb(255, 17, 17);stroke-width:3" />
<line x1="865.9" y1="-145.9" x2="853.3" y2="-68.3" style="stroke:rgb(255, 17, 17);stroke-width:3" />
<circle cx="853.3" cy="-68.3" r="20" fill="rgb(255, 17, 17)" />
<text x="873.3" y="-88.3" font-size="24" text-anchor="start" fill="black">c</text>
<line x1="853.3" y1="-68.3" x2="1394.3" y2="-230.6" style="stroke:rgb(255, 17, 17);stroke-width:3" />
<line x1="1394.3" y1="-230.6" x2="1621.3" y2="-298.7" style="stroke:rgb(255, 17, 17);stroke-width:3" />
<circle cx="1621.3" cy="-298.7" r="20" fill="rgb(255, 17, 17)" />
<text x="1641.3" y="-318.7" font-size="24" text-anchor="start" fill="black">g</text>
<line x1="1621.3" y1="-298.7" x2="1319.2" y2="-430.9" style="stroke:rgb(255, 17, 17);stroke-width:3" />
<line x1="1319.2" y1="-430.9" x2="938.7" y2="-597.3" style="stroke:rgb(255, 17, 17);stroke-width:3" />
<circle cx="938.7" cy="-597.3" r="20" fill="rgb(255, 17, 17)" />
<text x="958.7" y="-617.3" font-size="24" text-anchor="start" fill="black">f</text>
<line x1="938.7" y1="-597.3" x2="909.7" y2="-417.6" style="stroke:rgb(255, 17, 17);stroke-width:3" />
<line x1="909.7" y1="-417.6" x2="938.7" y2="-597.3" style="stroke:rgb(255, 17, 17);stroke-width:3" />
<circle cx="938.7" cy="-597.3" r="20" fill="rgb(255, 17, 17)" />
<text x="958.7" y="-617.3" font-size="24" text-anchor="start" fill="black">f</text>
<line x1="938.7" y1="-597.3" x2="446.3" y2="-563.9" style="stroke:rgb(255, 17, 17);stroke-width:3" />
<line x1="446.3" y1="-563.9" x2="249.6" y2="-550.5" style="stroke:rgb(255, 17, 17);stroke-width:3" />
<circle cx="249.6" cy="-550.5" r="20" fill="rgb(255, 17, 17)" />
<text x="269.6" y="-570.5" font-size="24" text-anchor="start" fill="black">b</text>
<line x1="249.6" y1="-550.5" x2="192.7" y2="-413.2" style="stroke:rgb(255, 17, 17);stroke-width:3" />
<line x1="192.7" y1="-413.2" x2="42.7" y2="-51.2" style="stroke:rgb(255, 17, 17);stroke-width:3" />
<circle cx="42.7" cy="-51.2" r="20" fill="rgb(255, 17, 17)" />
<text x="62.7" y="-71.2" font-size="24" text-anchor="start" fill="black">a</text>
<line x1="42.7" y1="-51.2" x2="192.6" y2="-97.9" style="stroke:rgb(255, 17, 17);stroke-width:3" />
<line x1="192.6" y1="-97.9" x2="300.5" y2="-131.4" style="stroke:rgb(255, 17, 17);stroke-width:3" />
<line x1="300.5" y1="-131.4" x2="426.7" y2="-170.7" style="stroke:rgb(255, 17, 17);stroke-width:3" />
<circle cx="426.7" cy="-170.7" r="20" fill="rgb(255, 17, 17)" />
<text x="446.7" y="-190.7" font-size="24" text-anchor="start" fill="black">d</text>
<line x1="426.7" y1="-170.7" x2="426.7" y2="-128.0" style="stroke:rgb(255, 17, 17);stroke-width:3" />
<circle cx="426.7" cy="-128.0" r="20" fill="rgb(255, 17, 17)" />
<text x="446.7" y="-148.0" font-size="24" text-anchor="start" fill="black">e</text>
<line x1="426.7" y1="-128.0" x2="707.0" y2="-88.7" style="stroke:rgb(255, 17, 17);stroke-width:3" />
<line x1="465.5" y1="-297.3" x2="504.9" y2="-346.6" style="stroke:rgb(0, 162, 232);stroke-width:3" />
<line x1="707.0" y1="-88.7" x2="682.7" y2="85.3" style="stroke:rgb(0, 162, 232);stroke-width:3" />
<circle cx="465.5" cy="-297.3" r="20" fill="rgb(0, 162, 232)" />
<text x="485.5" y="-317.3" font-size="24" text-anchor="start" fill="black">Start</text>
<circle cx="682.7" cy="85.3" r="20" fill="rgb(0, 162, 232)" />
<text x="702.7" y="65.3" font-size="24" text-anchor="start" fill="black">Finiš</text>
<text x="465.5" y="-297.3" font-size="24" dominant-baseline="central" text-anchor="middle" fill="black">1.</text>
<line x1="558.7" y1="-303.6" x2="588.8" y2="-341.3" style="stroke:rgb(0, 162, 232);stroke-width:3" />
<circle cx="588.8" cy="-341.3" r="20" fill="rgb(0, 162, 232)" />
<text x="608.8" y="-361.3" font-size="24" text-anchor="start" fill="black">rimi</text>
<text x="588.8" y="-341.3" font-size="24" dominant-baseline="central" text-anchor="middle" fill="black">2.</text>
<line x1="865.9" y1="-145.9" x2="845.1" y2="-149.3" style="stroke:rgb(0, 162, 232);stroke-width:3" />
<circle cx="845.1" cy="-149.3" r="20" fill="rgb(0, 162, 232)" />
<text x="865.1" y="-169.3" font-size="24" text-anchor="start" fill="black">selver</text>
<text x="845.1" y="-149.3" font-size="24" dominant-baseline="central" text-anchor="middle" fill="black">3.</text>
<line x1="1394.3" y1="-230.6" x2="1450.7" y2="-42.7" style="stroke:rgb(0, 162, 232);stroke-width:3" />
<circle cx="1450.7" cy="-42.7" r="20" fill="rgb(0, 162, 232)" />
<text x="1470.7" y="-62.7" font-size="24" text-anchor="start" fill="black">coop</text>
<text x="1450.7" y="-42.7" font-size="24" dominant-baseline="central" text-anchor="middle" fill="black">4.</text>
<line x1="1319.2" y1="-430.9" x2="1280.0" y2="-341.3" style="stroke:rgb(0, 162, 232);stroke-width:3" />
<circle cx="1280.0" cy="-341.3" r="20" fill="rgb(0, 162, 232)" />
<text x="1300.0" y="-361.3" font-size="24" text-anchor="start" fill="black">maxima</text>
<text x="1280.0" y="-341.3" font-size="24" dominant-baseline="central" text-anchor="middle" fill="black">5.</text>
<line x1="909.7" y1="-417.6" x2="853.3" y2="-426.7" style="stroke:rgb(0, 162, 232);stroke-width:3" />
<circle cx="853.3" cy="-426.7" r="20" fill="rgb(0, 162, 232)" />
<text x="873.3" y="-446.7" font-size="24" text-anchor="start" fill="black">ehituse-abc</text>
<text x="853.3" y="-426.7" font-size="24" dominant-baseline="central" text-anchor="middle" fill="black">6.</text>
<line x1="446.3" y1="-563.9" x2="426.7" y2="-853.3" style="stroke:rgb(0, 162, 232);stroke-width:3" />
<circle cx="426.7" cy="-853.3" r="20" fill="rgb(0, 162, 232)" />
<text x="446.7" y="-873.3" font-size="24" text-anchor="start" fill="black">bauhof</text>
<text x="426.7" y="-853.3" font-size="24" dominant-baseline="central" text-anchor="middle" fill="black">7.</text>
<line x1="192.7" y1="-413.2" x2="104.5" y2="-449.8" style="stroke:rgb(0, 162, 232);stroke-width:3" />
<circle cx="104.5" cy="-449.8" r="20" fill="rgb(0, 162, 232)" />
<text x="124.5" y="-469.8" font-size="24" text-anchor="start" fill="black">prisma</text>
<text x="104.5" y="-449.8" font-size="24" dominant-baseline="central" text-anchor="middle" fill="black">8.</text>
<line x1="192.6" y1="-97.9" x2="197.8" y2="-81.4" style="stroke:rgb(0, 162, 232);stroke-width:3" />
<circle cx="197.8" cy="-81.4" r="20" fill="rgb(0, 162, 232)" />
<text x="217.8" y="-101.4" font-size="24" text-anchor="start" fill="black">k-rauta</text>
<text x="197.8" y="-81.4" font-size="24" dominant-baseline="central" text-anchor="middle" fill="black">9.</text>
<line x1="300.5" y1="-131.4" x2="341.3" y2="-0.0" style="stroke:rgb(0, 162, 232);stroke-width:3" />
<circle cx="341.3" cy="-0.0" r="20" fill="rgb(0, 162, 232)" />
<text x="361.3" y="-20.0" font-size="24" text-anchor="start" fill="black">bauhaus</text>
<text x="341.3" y="-0.0" font-size="24" dominant-baseline="central" text-anchor="middle" fill="black">10.</text>
<text x="682.7" y="85.3" font-size="24" dominant-baseline="central" text-anchor="middle" fill="black">11.</text>

</svg>
