<svg version="1.1" width="1920" height="1279" viewBox="-127 -1023 1920 1279" font-family="Hermit" xmlns="http://www.w3.org/2000/svg">
<rect x="-127" y="-1023" width="100%" height="100%" fill="rgb(240, 240, 240)" />

<line x1="42.7" y1="-51.2" x2="249.6" y2="-550.5" style="stroke:rgb(192, 192, 192);stroke-width:16" />
<circle cx="42.7" cy="-51.2" r="12" fill="rgb(192, 192, 192)" />
<circle cx="249.6" cy="-550.5" r="12" fill="rgb(192, 192, 192)" />
<line x1="249.6" y1="-550.5" x2="853.3" y2="-68.3" style="stroke:rgb(192, 192, 192);stroke-width:16" />
<circle cx="853.3" cy="-68.3" r="12" fill="rgb(192, 192, 192)" />
<line x1="938.7" y1="-597.3" x2="1621.3" y2="-298.7" style="stroke:rgb(192, 192, 192);stroke-width:16" />
<circle cx="1621.3" cy="-298.7" r="12" fill="rgb(192, 192, 192)" />
<line x1="42.7" y1="-51.2" x2="426.7" y2="-170.7" style="stroke:rgb(192, 192, 192);stroke-width:16" />
<circle cx="426.7" cy="-170.7" r="12" fill="rgb(192, 192, 192)" />
<line x1="249.6" y1="-550.5" x2="426.7" y2="-170.7" style="stroke:rgb(192, 192, 192);stroke-width:16" />
<circle cx="426.7" cy="-170.7" r="12" fill="rgb(192, 192, 192)" />
<line x1="426.7" y1="-170.7" x2="426.7" y2="-128.0" style="stroke:rgb(192, 192, 192);stroke-width:16" />
<circle cx="426.7" cy="-128.0" r="12" fill="rgb(192, 192, 192)" />
<line x1="426.7" y1="-128.0" x2="853.3" y2="-68.3" style="stroke:rgb(192, 192, 192);stroke-width:16" />
<circle cx="853.3" cy="-68.3" r="12" fill="rgb(192, 192, 192)" />
<line x1="249.6" y1="-550.5" x2="938.7" y2="-597.3" style="stroke:rgb(192, 192, 192);stroke-width:16" />
<circle cx="938.7" cy="-597.3" r="12" fill="rgb(192, 192, 192)" />
<line x1="1621.3" y1="-298.7" x2="853.3" y2="-68.3" style="stroke:rgb(192, 192, 192);stroke-width:16" />
<circle cx="853.3" cy="-68.3" r="12" fill="rgb(192, 192, 192)" />
<line x1="938.7" y1="-597.3" x2="853.3" y2="-68.3" style="stroke:rgb(192, 192, 192);stroke-width:16" />
<circle cx="853.3" cy="-68.3" r="12" fill="rgb(192, 192, 192)" />
<line x1="42.7" y1="-51.2" x2="426.7" y2="-128.0" style="stroke:rgb(192, 192, 192);stroke-width:16" />
<circle cx="426.7" cy="-128.0" r="12" fill="rgb(192, 192, 192)" />
<line x1="385.1" y1="-259.8" x2="426.7" y2="-170.7" style="stroke:rgb(255, 17, 17);stroke-width:16" />
<circle cx="426.7" cy="-170.7" r="20" fill="rgb(255, 17, 17)" />
<line x1="426.7" y1="-170.7" x2="426.7" y2="-128.0" style="stroke:rgb(255, 17, 17);stroke-width:16" />
<circle cx="426.7" cy="-128.0" r="20" fill="rgb(255, 17, 17)" />
<line x1="426.7" y1="-128.0" x2="320.0" y2="-106.7" style="stroke:rgb(255, 17, 17);stroke-width:16" />
<line x1="320.0" y1="-106.7" x2="197.6" y2="-82.2" style="stroke:rgb(255, 17, 17);stroke-width:16" />
<line x1="197.6" y1="-82.2" x2="42.7" y2="-51.2" style="stroke:rgb(255, 17, 17);stroke-width:16" />
<circle cx="42.7" cy="-51.2" r="20" fill="rgb(255, 17, 17)" />
<line x1="42.7" y1="-51.2" x2="192.7" y2="-413.2" style="stroke:rgb(255, 17, 17);stroke-width:16" />
<line x1="192.7" y1="-413.2" x2="249.6" y2="-550.5" style="stroke:rgb(255, 17, 17);stroke-width:16" />
<circle cx="249.6" cy="-550.5" r="20" fill="rgb(255, 17, 17)" />
<line x1="249.6" y1="-550.5" x2="446.3" y2="-563.9" style="stroke:rgb(255, 17, 17);stroke-width:16" />
<line x1="446.3" y1="-563.9" x2="249.6" y2="-550.5" style="stroke:rgb(255, 17, 17);stroke-width:16" />
<circle cx="249.6" cy="-550.5" r="20" fill="rgb(255, 17, 17)" />
<line x1="249.6" y1="-550.5" x2="558.7" y2="-303.6" style="stroke:rgb(255, 17, 17);stroke-width:16" />
<line x1="558.7" y1="-303.6" x2="853.3" y2="-68.3" style="stroke:rgb(255, 17, 17);stroke-width:16" />
<circle cx="853.3" cy="-68.3" r="20" fill="rgb(255, 17, 17)" />
<line x1="853.3" y1="-68.3" x2="707.0" y2="-88.7" style="stroke:rgb(255, 17, 17);stroke-width:16" />
<line x1="707.0" y1="-88.7" x2="853.3" y2="-68.3" style="stroke:rgb(255, 17, 17);stroke-width:16" />
<circle cx="853.3" cy="-68.3" r="20" fill="rgb(255, 17, 17)" />
<line x1="853.3" y1="-68.3" x2="865.9" y2="-145.9" style="stroke:rgb(255, 17, 17);stroke-width:16" />
<line x1="865.9" y1="-145.9" x2="909.7" y2="-417.6" style="stroke:rgb(255, 17, 17);stroke-width:16" />
<line x1="909.7" y1="-417.6" x2="938.7" y2="-597.3" style="stroke:rgb(255, 17, 17);stroke-width:16" />
<circle cx="938.7" cy="-597.3" r="20" fill="rgb(255, 17, 17)" />
<line x1="938.7" y1="-597.3" x2="938.7" y2="-597.3" style="stroke:rgb(255, 17, 17);stroke-width:16" />
<line x1="938.7" y1="-597.3" x2="1319.2" y2="-430.9" style="stroke:rgb(255, 17, 17);stroke-width:16" />
<line x1="1319.2" y1="-430.9" x2="1621.3" y2="-298.7" style="stroke:rgb(255, 17, 17);stroke-width:16" />
<circle cx="1621.3" cy="-298.7" r="20" fill="rgb(255, 17, 17)" />
<line x1="1621.3" y1="-298.7" x2="1394.3" y2="-230.6" style="stroke:rgb(255, 17, 17);stroke-width:16" />
<line x1="1394.3" y1="-230.6" x2="1156.3" y2="-159.2" style="stroke:rgb(255, 17, 17);stroke-width:16" />
<text font-size="14" dominant-baseline="central" text-anchor="middle" fill="rgb(127, 127, 127)" transform="translate(146.2, -300.9) rotate(-67.4855)">vabaduse-pst</text>
<text font-size="14" dominant-baseline="central" text-anchor="middle" fill="rgb(127, 127, 127)" transform="translate(551.5, -309.4) rotate(38.6204)">1</text>
<text font-size="14" dominant-baseline="central" text-anchor="middle" fill="rgb(127, 127, 127)" transform="translate(1280.0, -448.0) rotate(23.6294)">2</text>
<text font-size="14" dominant-baseline="central" text-anchor="middle" fill="rgb(127, 127, 127)" transform="translate(234.7, -110.9) rotate(-17.2815)">3</text>
<text font-size="14" dominant-baseline="central" text-anchor="middle" fill="rgb(127, 127, 127)" transform="translate(338.2, -360.6) rotate(65.0142)">parnu-mnt</text>
<text font-size="14" dominant-baseline="central" text-anchor="middle" fill="rgb(127, 127, 127)" transform="translate(426.7, -149.3) rotate(90)">poik</text>
<text font-size="14" dominant-baseline="central" text-anchor="middle" fill="rgb(127, 127, 127)" transform="translate(640.0, -98.1) rotate(7.96961)">6</text>
<text font-size="14" dominant-baseline="central" text-anchor="middle" fill="rgb(127, 127, 127)" transform="translate(594.2, -573.9) rotate(-3.88551)">8</text>
<text font-size="14" dominant-baseline="central" text-anchor="middle" fill="rgb(127, 127, 127)" transform="translate(1237.3, -183.5) rotate(-16.6992)">9</text>
<text font-size="14" dominant-baseline="central" text-anchor="middle" fill="rgb(127, 127, 127)" transform="translate(896.0, -332.8) rotate(-80.8377)">10</text>
<text font-size="14" dominant-baseline="central" text-anchor="middle" fill="rgb(127, 127, 127)" transform="translate(234.7, -89.6) rotate(-11.3099)">estonia-pst</text>
<line x1="385.1" y1="-259.8" x2="465.5" y2="-297.3" style="stroke:rgb(0, 162, 232);stroke-width:16" />
<circle cx="385.1" cy="-259.8" r="12" fill="rgb(0, 162, 232)" />
<circle cx="465.5" cy="-297.3" r="20" fill="rgb(0, 162, 232)" />
<text x="485.5" y="-317.3" font-size="24" text-anchor="start" fill="black">kodu</text>
<text x="465.5" y="-297.3" font-size="24" dominant-baseline="central" text-anchor="middle" fill="black">1.</text>
<line x1="320.0" y1="-106.7" x2="341.3" y2="-0.0" style="stroke:rgb(0, 162, 232);stroke-width:16" />
<circle cx="320.0" cy="-106.7" r="12" fill="rgb(0, 162, 232)" />
<circle cx="341.3" cy="-0.0" r="20" fill="rgb(0, 162, 232)" />
<text x="361.3" y="-20.0" font-size="24" text-anchor="start" fill="black">bauhaus</text>
<text x="341.3" y="-0.0" font-size="24" dominant-baseline="central" text-anchor="middle" fill="black">2.</text>
<line x1="197.6" y1="-82.2" x2="197.8" y2="-81.4" style="stroke:rgb(0, 162, 232);stroke-width:16" />
<circle cx="197.6" cy="-82.2" r="12" fill="rgb(0, 162, 232)" />
<circle cx="197.8" cy="-81.4" r="20" fill="rgb(0, 162, 232)" />
<text x="217.8" y="-101.4" font-size="24" text-anchor="start" fill="black">k-rauta</text>
<text x="197.8" y="-81.4" font-size="24" dominant-baseline="central" text-anchor="middle" fill="black">3.</text>
<line x1="192.7" y1="-413.2" x2="104.5" y2="-449.8" style="stroke:rgb(0, 162, 232);stroke-width:16" />
<circle cx="192.7" cy="-413.2" r="12" fill="rgb(0, 162, 232)" />
<circle cx="104.5" cy="-449.8" r="20" fill="rgb(0, 162, 232)" />
<text x="124.5" y="-469.8" font-size="24" text-anchor="start" fill="black">prisma</text>
<text x="104.5" y="-449.8" font-size="24" dominant-baseline="central" text-anchor="middle" fill="black">4.</text>
<line x1="446.3" y1="-563.9" x2="426.7" y2="-853.3" style="stroke:rgb(0, 162, 232);stroke-width:16" />
<circle cx="446.3" cy="-563.9" r="12" fill="rgb(0, 162, 232)" />
<circle cx="426.7" cy="-853.3" r="20" fill="rgb(0, 162, 232)" />
<text x="446.7" y="-873.3" font-size="24" text-anchor="start" fill="black">bauhof</text>
<text x="426.7" y="-853.3" font-size="24" dominant-baseline="central" text-anchor="middle" fill="black">5.</text>
<line x1="558.7" y1="-303.6" x2="588.8" y2="-341.3" style="stroke:rgb(0, 162, 232);stroke-width:16" />
<circle cx="558.7" cy="-303.6" r="12" fill="rgb(0, 162, 232)" />
<circle cx="588.8" cy="-341.3" r="20" fill="rgb(0, 162, 232)" />
<text x="608.8" y="-361.3" font-size="24" text-anchor="start" fill="black">rimi</text>
<text x="588.8" y="-341.3" font-size="24" dominant-baseline="central" text-anchor="middle" fill="black">6.</text>
<line x1="707.0" y1="-88.7" x2="682.7" y2="85.3" style="stroke:rgb(0, 162, 232);stroke-width:16" />
<circle cx="707.0" cy="-88.7" r="12" fill="rgb(0, 162, 232)" />
<circle cx="682.7" cy="85.3" r="20" fill="rgb(0, 162, 232)" />
<text x="702.7" y="65.3" font-size="24" text-anchor="start" fill="black">costco</text>
<text x="682.7" y="85.3" font-size="24" dominant-baseline="central" text-anchor="middle" fill="black">7.</text>
<line x1="865.9" y1="-145.9" x2="845.1" y2="-149.3" style="stroke:rgb(0, 162, 232);stroke-width:16" />
<circle cx="865.9" cy="-145.9" r="12" fill="rgb(0, 162, 232)" />
<circle cx="845.1" cy="-149.3" r="20" fill="rgb(0, 162, 232)" />
<text x="865.1" y="-169.3" font-size="24" text-anchor="start" fill="black">selver</text>
<text x="845.1" y="-149.3" font-size="24" dominant-baseline="central" text-anchor="middle" fill="black">8.</text>
<line x1="909.7" y1="-417.6" x2="853.3" y2="-426.7" style="stroke:rgb(0, 162, 232);stroke-width:16" />
<circle cx="909.7" cy="-417.6" r="12" fill="rgb(0, 162, 232)" />
<circle cx="853.3" cy="-426.7" r="20" fill="rgb(0, 162, 232)" />
<text x="873.3" y="-446.7" font-size="24" text-anchor="start" fill="black">ehituse-abc</text>
<text x="853.3" y="-426.7" font-size="24" dominant-baseline="central" text-anchor="middle" fill="black">9.</text>
<line x1="938.7" y1="-597.3" x2="1024.0" y2="-853.3" style="stroke:rgb(0, 162, 232);stroke-width:16" />
<circle cx="938.7" cy="-597.3" r="12" fill="rgb(0, 162, 232)" />
<circle cx="1024.0" cy="-853.3" r="20" fill="rgb(0, 162, 232)" />
<text x="1044.0" y="-873.3" font-size="24" text-anchor="start" fill="black">comarket</text>
<text x="1024.0" y="-853.3" font-size="24" dominant-baseline="central" text-anchor="middle" fill="black">10.</text>
<line x1="1319.2" y1="-430.9" x2="1280.0" y2="-341.3" style="stroke:rgb(0, 162, 232);stroke-width:16" />
<circle cx="1319.2" cy="-430.9" r="12" fill="rgb(0, 162, 232)" />
<circle cx="1280.0" cy="-341.3" r="20" fill="rgb(0, 162, 232)" />
<text x="1300.0" y="-361.3" font-size="24" text-anchor="start" fill="black">maxima</text>
<text x="1280.0" y="-341.3" font-size="24" dominant-baseline="central" text-anchor="middle" fill="black">11.</text>
<line x1="1394.3" y1="-230.6" x2="1450.7" y2="-42.7" style="stroke:rgb(0, 162, 232);stroke-width:16" />
<circle cx="1394.3" cy="-230.6" r="12" fill="rgb(0, 162, 232)" />
<circle cx="1450.7" cy="-42.7" r="20" fill="rgb(0, 162, 232)" />
<text x="1470.7" y="-62.7" font-size="24" text-anchor="start" fill="black">coop</text>
<text x="1450.7" y="-42.7" font-size="24" dominant-baseline="central" text-anchor="middle" fill="black">12.</text>
<line x1="1156.3" y1="-159.2" x2="1109.3" y2="-315.7" style="stroke:rgb(0, 162, 232);stroke-width:16" />
<circle cx="1156.3" cy="-159.2" r="12" fill="rgb(0, 162, 232)" />
<circle cx="1109.3" cy="-315.7" r="20" fill="rgb(0, 162, 232)" />
<text x="1129.3" y="-335.7" font-size="24" text-anchor="start" fill="black">maksimarket</text>
<text x="1109.3" y="-315.7" font-size="24" dominant-baseline="central" text-anchor="middle" fill="black">13.</text>

</svg>
