<svg version="1.1" width="1920" height="889" viewBox="-747 -340 1920 889" font-family="Hermit" xmlns="http://www.w3.org/2000/svg">
<rect x="-747" y="-340" width="100%" height="100%" fill="rgb(204, 204, 204)" />

<line x1="128.6" y1="-25.1" x2="457.8" y2="-36.4" style="stroke:rgb(136, 136, 136);stroke-width:3" />
<line x1="457.8" y1="-36.4" x2="583.3" y2="-66.5" style="stroke:rgb(136, 136, 136);stroke-width:3" />
<line x1="734.0" y1="-102.6" x2="870.6" y2="-193.0" style="stroke:rgb(136, 136, 136);stroke-width:3" />
<line x1="909.9" y1="-219.0" x2="950.7" y2="-162.0" style="stroke:rgb(136, 136, 136);stroke-width:3" />
<line x1="1017.7" y1="-68.6" x2="1077.3" y2="158.4" style="stroke:rgb(136, 136, 136);stroke-width:3" />
<line x1="734.0" y1="-102.6" x2="768.9" y2="21.3" style="stroke:rgb(136, 136, 136);stroke-width:3" />
<line x1="768.9" y1="21.3" x2="879.6" y2="-21.3" style="stroke:rgb(136, 136, 136);stroke-width:3" />
<line x1="768.9" y1="21.3" x2="777.0" y2="83.2" style="stroke:rgb(136, 136, 136);stroke-width:3" />
<line x1="798.3" y1="245.4" x2="577.4" y2="200.3" style="stroke:rgb(136, 136, 136);stroke-width:3" />
<line x1="488.0" y1="182.1" x2="473.3" y2="75.7" style="stroke:rgb(136, 136, 136);stroke-width:3" />
<line x1="879.6" y1="-21.3" x2="952.4" y2="103.6" style="stroke:rgb(136, 136, 136);stroke-width:3" />
<line x1="952.4" y1="103.6" x2="1077.3" y2="158.4" style="stroke:rgb(136, 136, 136);stroke-width:3" />
<line x1="1077.3" y1="158.4" x2="956.1" y2="196.2" style="stroke:rgb(136, 136, 136);stroke-width:3" />
<line x1="952.4" y1="103.6" x2="768.9" y2="21.3" style="stroke:rgb(136, 136, 136);stroke-width:3" />
<line x1="-644.1" y1="69.5" x2="-234.7" y2="17.9" style="stroke:rgb(136, 136, 136);stroke-width:3" />
<line x1="-66.2" y1="-3.3" x2="128.6" y2="-25.1" style="stroke:rgb(136, 136, 136);stroke-width:3" />
<line x1="-653.6" y1="372.2" x2="-644.1" y2="69.5" style="stroke:rgb(136, 136, 136);stroke-width:3" />
<line x1="-653.6" y1="372.2" x2="-427.5" y2="451.6" style="stroke:rgb(136, 136, 136);stroke-width:3" />
<line x1="-427.5" y1="451.6" x2="133.6" y2="286.4" style="stroke:rgb(136, 136, 136);stroke-width:3" />
<line x1="-66.2" y1="-3.3" x2="-232.2" y2="102.8" style="stroke:rgb(136, 136, 136);stroke-width:3" />
<line x1="128.6" y1="-25.1" x2="115.4" y2="48.7" style="stroke:rgb(136, 136, 136);stroke-width:3" />
<line x1="71.9" y1="145.2" x2="115.4" y2="48.7" style="stroke:rgb(136, 136, 136);stroke-width:3" />
<line x1="-105.0" y1="136.7" x2="71.9" y2="145.2" style="stroke:rgb(136, 136, 136);stroke-width:3" />
<line x1="-105.0" y1="136.7" x2="-170.2" y2="238.8" style="stroke:rgb(136, 136, 136);stroke-width:3" />
<line x1="-170.2" y1="238.8" x2="-251.6" y2="258.7" style="stroke:rgb(136, 136, 136);stroke-width:3" />
<line x1="-251.6" y1="258.7" x2="-307.4" y2="331.5" style="stroke:rgb(136, 136, 136);stroke-width:3" />
<line x1="-307.4" y1="331.5" x2="-418.0" y2="343.8" style="stroke:rgb(136, 136, 136);stroke-width:3" />
<line x1="-418.0" y1="343.8" x2="-427.5" y2="451.6" style="stroke:rgb(136, 136, 136);stroke-width:3" />
<line x1="-418.0" y1="343.8" x2="-653.6" y2="372.2" style="stroke:rgb(136, 136, 136);stroke-width:3" />
<line x1="71.9" y1="145.2" x2="283.7" y2="47.3" style="stroke:rgb(136, 136, 136);stroke-width:3" />
<line x1="283.7" y1="47.3" x2="488.0" y2="182.1" style="stroke:rgb(136, 136, 136);stroke-width:3" />
<line x1="583.3" y1="-66.5" x2="734.0" y2="-102.6" style="stroke:rgb(136, 136, 136);stroke-width:3" />
<line x1="273.8" y1="245.2" x2="488.0" y2="182.1" style="stroke:rgb(136, 136, 136);stroke-width:3" />
<line x1="-234.7" y1="17.9" x2="-66.2" y2="-3.3" style="stroke:rgb(136, 136, 136);stroke-width:3" />
<line x1="-425.0" y1="226.1" x2="-653.6" y2="372.2" style="stroke:rgb(136, 136, 136);stroke-width:3" />
<line x1="-232.2" y1="102.8" x2="-425.0" y2="226.1" style="stroke:rgb(136, 136, 136);stroke-width:3" />
<line x1="133.6" y1="286.4" x2="273.8" y2="245.2" style="stroke:rgb(136, 136, 136);stroke-width:3" />
<line x1="473.3" y1="75.7" x2="457.8" y2="-36.4" style="stroke:rgb(136, 136, 136);stroke-width:3" />
<line x1="777.0" y1="83.2" x2="798.3" y2="245.4" style="stroke:rgb(136, 136, 136);stroke-width:3" />
<line x1="577.4" y1="200.3" x2="488.0" y2="182.1" style="stroke:rgb(136, 136, 136);stroke-width:3" />
<line x1="956.1" y1="196.2" x2="798.3" y2="245.4" style="stroke:rgb(136, 136, 136);stroke-width:3" />
<line x1="870.6" y1="-193.0" x2="909.9" y2="-219.0" style="stroke:rgb(136, 136, 136);stroke-width:3" />
<line x1="950.7" y1="-162.0" x2="1017.7" y2="-68.6" style="stroke:rgb(136, 136, 136);stroke-width:3" />
<line x1="583.3" y1="-66.5" x2="734.0" y2="-102.6" style="stroke:rgb(255, 17, 17);stroke-width:3" />
<circle cx="734.0" cy="-102.6" r="20" fill="rgb(255, 17, 17)" />
<text x="754.0" y="-122.6" font-size="24" text-anchor="start" fill="black">c</text>
<line x1="734.0" y1="-102.6" x2="870.6" y2="-193.0" style="stroke:rgb(255, 17, 17);stroke-width:3" />
<line x1="870.6" y1="-193.0" x2="909.9" y2="-219.0" style="stroke:rgb(255, 17, 17);stroke-width:3" />
<circle cx="909.9" cy="-219.0" r="20" fill="rgb(255, 17, 17)" />
<text x="929.9" y="-239.0" font-size="24" text-anchor="start" fill="black">d</text>
<line x1="909.9" y1="-219.0" x2="950.7" y2="-162.0" style="stroke:rgb(255, 17, 17);stroke-width:3" />
<line x1="950.7" y1="-162.0" x2="909.9" y2="-219.0" style="stroke:rgb(255, 17, 17);stroke-width:3" />
<circle cx="909.9" cy="-219.0" r="20" fill="rgb(255, 17, 17)" />
<text x="929.9" y="-239.0" font-size="24" text-anchor="start" fill="black">d</text>
<line x1="909.9" y1="-219.0" x2="870.6" y2="-193.0" style="stroke:rgb(255, 17, 17);stroke-width:3" />
<line x1="870.6" y1="-193.0" x2="734.0" y2="-102.6" style="stroke:rgb(255, 17, 17);stroke-width:3" />
<circle cx="734.0" cy="-102.6" r="20" fill="rgb(255, 17, 17)" />
<text x="754.0" y="-122.6" font-size="24" text-anchor="start" fill="black">c</text>
<line x1="734.0" y1="-102.6" x2="768.9" y2="21.3" style="stroke:rgb(255, 17, 17);stroke-width:3" />
<circle cx="768.9" cy="21.3" r="20" fill="rgb(255, 17, 17)" />
<text x="788.9" y="1.3" font-size="24" text-anchor="start" fill="black">j</text>
<line x1="768.9" y1="21.3" x2="777.0" y2="83.2" style="stroke:rgb(255, 17, 17);stroke-width:3" />
<line x1="777.0" y1="83.2" x2="798.3" y2="245.4" style="stroke:rgb(255, 17, 17);stroke-width:3" />
<circle cx="798.3" cy="245.4" r="20" fill="rgb(255, 17, 17)" />
<text x="818.3" y="225.4" font-size="24" text-anchor="start" fill="black">h</text>
<line x1="798.3" y1="245.4" x2="956.1" y2="196.2" style="stroke:rgb(255, 17, 17);stroke-width:3" />
<line x1="956.1" y1="196.2" x2="798.3" y2="245.4" style="stroke:rgb(255, 17, 17);stroke-width:3" />
<circle cx="798.3" cy="245.4" r="20" fill="rgb(255, 17, 17)" />
<text x="818.3" y="225.4" font-size="24" text-anchor="start" fill="black">h</text>
<line x1="798.3" y1="245.4" x2="577.4" y2="200.3" style="stroke:rgb(255, 17, 17);stroke-width:3" />
<line x1="577.4" y1="200.3" x2="488.0" y2="182.1" style="stroke:rgb(255, 17, 17);stroke-width:3" />
<circle cx="488.0" cy="182.1" r="20" fill="rgb(255, 17, 17)" />
<text x="508.0" y="162.1" font-size="24" text-anchor="start" fill="black">g</text>
<line x1="488.0" y1="182.1" x2="473.3" y2="75.7" style="stroke:rgb(255, 17, 17);stroke-width:3" />
<line x1="473.3" y1="75.7" x2="457.8" y2="-36.4" style="stroke:rgb(255, 17, 17);stroke-width:3" />
<circle cx="457.8" cy="-36.4" r="20" fill="rgb(255, 17, 17)" />
<text x="477.8" y="-56.4" font-size="24" text-anchor="start" fill="black">b</text>
<line x1="457.8" y1="-36.4" x2="128.6" y2="-25.1" style="stroke:rgb(255, 17, 17);stroke-width:3" />
<circle cx="128.6" cy="-25.1" r="20" fill="rgb(255, 17, 17)" />
<text x="148.6" y="-45.1" font-size="24" text-anchor="start" fill="black">a</text>
<line x1="128.6" y1="-25.1" x2="-66.2" y2="-3.3" style="stroke:rgb(255, 17, 17);stroke-width:3" />
<circle cx="-66.2" cy="-3.3" r="20" fill="rgb(255, 17, 17)" />
<text x="-46.2" y="-23.3" font-size="24" text-anchor="start" fill="black">l</text>
<line x1="-66.2" y1="-3.3" x2="-234.7" y2="17.9" style="stroke:rgb(255, 17, 17);stroke-width:3" />
<line x1="-234.7" y1="17.9" x2="-66.2" y2="-3.3" style="stroke:rgb(255, 17, 17);stroke-width:3" />
<circle cx="-66.2" cy="-3.3" r="20" fill="rgb(255, 17, 17)" />
<text x="-46.2" y="-23.3" font-size="24" text-anchor="start" fill="black">l</text>
<line x1="-66.2" y1="-3.3" x2="-232.2" y2="102.8" style="stroke:rgb(255, 17, 17);stroke-width:3" />
<line x1="-232.2" y1="102.8" x2="-425.0" y2="226.1" style="stroke:rgb(255, 17, 17);stroke-width:3" />
<line x1="-425.0" y1="226.1" x2="-653.6" y2="372.2" style="stroke:rgb(255, 17, 17);stroke-width:3" />
<circle cx="-653.6" cy="372.2" r="20" fill="rgb(255, 17, 17)" />
<text x="-633.6" y="352.2" font-size="24" text-anchor="start" fill="black">n</text>
<line x1="-653.6" y1="372.2" x2="-427.5" y2="451.6" style="stroke:rgb(255, 17, 17);stroke-width:3" />
<circle cx="-427.5" cy="451.6" r="20" fill="rgb(255, 17, 17)" />
<text x="-407.5" y="431.6" font-size="24" text-anchor="start" fill="black">o</text>
<line x1="-427.5" y1="451.6" x2="133.6" y2="286.4" style="stroke:rgb(255, 17, 17);stroke-width:3" />
<line x1="133.6" y1="286.4" x2="273.8" y2="245.2" style="stroke:rgb(255, 17, 17);stroke-width:3" />
<line x1="562.8" y1="-152.3" x2="583.3" y2="-66.5" style="stroke:rgb(0, 162, 232);stroke-width:3" />
<line x1="273.8" y1="245.2" x2="254.0" y2="177.8" style="stroke:rgb(0, 162, 232);stroke-width:3" />
<circle cx="562.8" cy="-152.3" r="20" fill="rgb(0, 162, 232)" />
<text x="582.8" y="-172.3" font-size="24" text-anchor="start" fill="black">Start</text>
<circle cx="254.0" cy="177.8" r="20" fill="rgb(0, 162, 232)" />
<text x="274.0" y="157.8" font-size="24" text-anchor="start" fill="black">Finiš</text>
<text x="562.8" y="-152.3" font-size="24" dominant-baseline="central" text-anchor="middle" fill="black">1.</text>
<line x1="870.6" y1="-193.0" x2="894.7" y2="-156.5" style="stroke:rgb(0, 162, 232);stroke-width:3" />
<circle cx="894.7" cy="-156.5" r="20" fill="rgb(0, 162, 232)" />
<text x="914.7" y="-176.5" font-size="24" text-anchor="start" fill="black">tallegg</text>
<text x="894.7" y="-156.5" font-size="24" dominant-baseline="central" text-anchor="middle" fill="black">2.</text>
<line x1="950.7" y1="-162.0" x2="1071.6" y2="-248.7" style="stroke:rgb(0, 162, 232);stroke-width:3" />
<circle cx="1071.6" cy="-248.7" r="20" fill="rgb(0, 162, 232)" />
<text x="1091.6" y="-268.7" font-size="24" text-anchor="start" fill="black">estonia</text>
<text x="1071.6" y="-248.7" font-size="24" dominant-baseline="central" text-anchor="middle" fill="black">3.</text>
<line x1="777.0" y1="83.2" x2="686.2" y2="95.1" style="stroke:rgb(0, 162, 232);stroke-width:3" />
<circle cx="686.2" cy="95.1" r="20" fill="rgb(0, 162, 232)" />
<text x="706.2" y="75.1" font-size="24" text-anchor="start" fill="black">selver</text>
<text x="686.2" y="95.1" font-size="24" dominant-baseline="central" text-anchor="middle" fill="black">4.</text>
<line x1="956.1" y1="196.2" x2="965.7" y2="227.0" style="stroke:rgb(0, 162, 232);stroke-width:3" />
<circle cx="965.7" cy="227.0" r="20" fill="rgb(0, 162, 232)" />
<text x="985.7" y="207.0" font-size="24" text-anchor="start" fill="black">prisma</text>
<text x="965.7" y="227.0" font-size="24" dominant-baseline="central" text-anchor="middle" fill="black">5.</text>
<line x1="577.4" y1="200.3" x2="570.3" y2="235.0" style="stroke:rgb(0, 162, 232);stroke-width:3" />
<circle cx="570.3" cy="235.0" r="20" fill="rgb(0, 162, 232)" />
<text x="590.3" y="215.0" font-size="24" text-anchor="start" fill="black">maxima</text>
<text x="570.3" y="235.0" font-size="24" dominant-baseline="central" text-anchor="middle" fill="black">6.</text>
<line x1="473.3" y1="75.7" x2="572.2" y2="62.0" style="stroke:rgb(0, 162, 232);stroke-width:3" />
<circle cx="572.2" cy="62.0" r="20" fill="rgb(0, 162, 232)" />
<text x="592.2" y="42.0" font-size="24" text-anchor="start" fill="black">rand</text>
<text x="572.2" y="62.0" font-size="24" dominant-baseline="central" text-anchor="middle" fill="black">7.</text>
<line x1="-234.7" y1="17.9" x2="-243.1" y2="-48.2" style="stroke:rgb(0, 162, 232);stroke-width:3" />
<circle cx="-243.1" cy="-48.2" r="20" fill="rgb(0, 162, 232)" />
<text x="-223.1" y="-68.2" font-size="24" text-anchor="start" fill="black">rimi</text>
<text x="-243.1" y="-48.2" font-size="24" dominant-baseline="central" text-anchor="middle" fill="black">8.</text>
<line x1="-232.2" y1="102.8" x2="-208.1" y2="140.5" style="stroke:rgb(0, 162, 232);stroke-width:3" />
<circle cx="-208.1" cy="140.5" r="20" fill="rgb(0, 162, 232)" />
<text x="-188.1" y="120.5" font-size="24" text-anchor="start" fill="black">kontor</text>
<text x="-208.1" y="140.5" font-size="24" dominant-baseline="central" text-anchor="middle" fill="black">9.</text>
<line x1="-425.0" y1="226.1" x2="-473.4" y2="150.4" style="stroke:rgb(0, 162, 232);stroke-width:3" />
<circle cx="-473.4" cy="150.4" r="20" fill="rgb(0, 162, 232)" />
<text x="-453.4" y="130.4" font-size="24" text-anchor="start" fill="black">pood</text>
<text x="-473.4" y="150.4" font-size="24" dominant-baseline="central" text-anchor="middle" fill="black">10.</text>
<line x1="133.6" y1="286.4" x2="120.1" y2="240.7" style="stroke:rgb(0, 162, 232);stroke-width:3" />
<circle cx="120.1" cy="240.7" r="20" fill="rgb(0, 162, 232)" />
<text x="140.1" y="220.7" font-size="24" text-anchor="start" fill="black">suvila</text>
<text x="120.1" y="240.7" font-size="24" dominant-baseline="central" text-anchor="middle" fill="black">11.</text>
<text x="254.0" y="177.8" font-size="24" dominant-baseline="central" text-anchor="middle" fill="black">12.</text>

</svg>
