<svg version="1.1" width="1920" height="889" viewBox="-747 -340 1920 889" font-family="Hermit" xmlns="http://www.w3.org/2000/svg">
<rect x="-747" y="-340" width="100%" height="100%" fill="rgb(240, 240, 240)" />

<line x1="128.6" y1="-25.1" x2="457.8" y2="-36.4" style="stroke:rgb(192, 192, 192);stroke-width:16" />
<circle cx="128.6" cy="-25.1" r="12" fill="rgb(192, 192, 192)" />
<circle cx="457.8" cy="-36.4" r="12" fill="rgb(192, 192, 192)" />
<line x1="457.8" y1="-36.4" x2="734.0" y2="-102.6" style="stroke:rgb(192, 192, 192);stroke-width:16" />
<circle cx="734.0" cy="-102.6" r="12" fill="rgb(192, 192, 192)" />
<line x1="734.0" y1="-102.6" x2="909.9" y2="-219.0" style="stroke:rgb(192, 192, 192);stroke-width:16" />
<circle cx="909.9" cy="-219.0" r="12" fill="rgb(192, 192, 192)" />
<line x1="909.9" y1="-219.0" x2="1017.7" y2="-68.6" style="stroke:rgb(192, 192, 192);stroke-width:16" />
<circle cx="1017.7" cy="-68.6" r="12" fill="rgb(192, 192, 192)" />
<line x1="1017.7" y1="-68.6" x2="1077.3" y2="158.4" style="stroke:rgb(192, 192, 192);stroke-width:16" />
<circle cx="1077.3" cy="158.4" r="12" fill="rgb(192, 192, 192)" />
<line x1="734.0" y1="-102.6" x2="768.9" y2="21.3" style="stroke:rgb(192, 192, 192);stroke-width:16" />
<circle cx="768.9" cy="21.3" r="12" fill="rgb(192, 192, 192)" />
<line x1="768.9" y1="21.3" x2="879.6" y2="-21.3" style="stroke:rgb(192, 192, 192);stroke-width:16" />
<circle cx="879.6" cy="-21.3" r="12" fill="rgb(192, 192, 192)" />
<line x1="768.9" y1="21.3" x2="798.3" y2="245.4" style="stroke:rgb(192, 192, 192);stroke-width:16" />
<circle cx="798.3" cy="245.4" r="12" fill="rgb(192, 192, 192)" />
<line x1="798.3" y1="245.4" x2="488.0" y2="182.1" style="stroke:rgb(192, 192, 192);stroke-width:16" />
<circle cx="488.0" cy="182.1" r="12" fill="rgb(192, 192, 192)" />
<line x1="488.0" y1="182.1" x2="457.8" y2="-36.4" style="stroke:rgb(192, 192, 192);stroke-width:16" />
<circle cx="457.8" cy="-36.4" r="12" fill="rgb(192, 192, 192)" />
<line x1="879.6" y1="-21.3" x2="952.4" y2="103.6" style="stroke:rgb(192, 192, 192);stroke-width:16" />
<circle cx="952.4" cy="103.6" r="12" fill="rgb(192, 192, 192)" />
<line x1="952.4" y1="103.6" x2="1077.3" y2="158.4" style="stroke:rgb(192, 192, 192);stroke-width:16" />
<circle cx="1077.3" cy="158.4" r="12" fill="rgb(192, 192, 192)" />
<line x1="1077.3" y1="158.4" x2="798.3" y2="245.4" style="stroke:rgb(192, 192, 192);stroke-width:16" />
<circle cx="798.3" cy="245.4" r="12" fill="rgb(192, 192, 192)" />
<line x1="952.4" y1="103.6" x2="768.9" y2="21.3" style="stroke:rgb(192, 192, 192);stroke-width:16" />
<circle cx="768.9" cy="21.3" r="12" fill="rgb(192, 192, 192)" />
<line x1="-644.1" y1="69.5" x2="-66.2" y2="-3.3" style="stroke:rgb(192, 192, 192);stroke-width:16" />
<circle cx="-66.2" cy="-3.3" r="12" fill="rgb(192, 192, 192)" />
<line x1="-66.2" y1="-3.3" x2="128.6" y2="-25.1" style="stroke:rgb(192, 192, 192);stroke-width:16" />
<circle cx="128.6" cy="-25.1" r="12" fill="rgb(192, 192, 192)" />
<line x1="-653.6" y1="372.2" x2="-644.1" y2="69.5" style="stroke:rgb(192, 192, 192);stroke-width:16" />
<circle cx="-644.1" cy="69.5" r="12" fill="rgb(192, 192, 192)" />
<line x1="-653.6" y1="372.2" x2="-427.5" y2="451.6" style="stroke:rgb(192, 192, 192);stroke-width:16" />
<circle cx="-427.5" cy="451.6" r="12" fill="rgb(192, 192, 192)" />
<line x1="-427.5" y1="451.6" x2="488.0" y2="182.1" style="stroke:rgb(192, 192, 192);stroke-width:16" />
<circle cx="488.0" cy="182.1" r="12" fill="rgb(192, 192, 192)" />
<line x1="128.6" y1="-25.1" x2="115.4" y2="48.7" style="stroke:rgb(192, 192, 192);stroke-width:16" />
<circle cx="115.4" cy="48.7" r="12" fill="rgb(192, 192, 192)" />
<line x1="71.9" y1="145.2" x2="115.4" y2="48.7" style="stroke:rgb(192, 192, 192);stroke-width:16" />
<circle cx="115.4" cy="48.7" r="12" fill="rgb(192, 192, 192)" />
<line x1="-105.0" y1="136.7" x2="71.9" y2="145.2" style="stroke:rgb(192, 192, 192);stroke-width:16" />
<circle cx="71.9" cy="145.2" r="12" fill="rgb(192, 192, 192)" />
<line x1="-105.0" y1="136.7" x2="-170.2" y2="238.8" style="stroke:rgb(192, 192, 192);stroke-width:16" />
<circle cx="-170.2" cy="238.8" r="12" fill="rgb(192, 192, 192)" />
<line x1="-170.2" y1="238.8" x2="-251.6" y2="258.7" style="stroke:rgb(192, 192, 192);stroke-width:16" />
<circle cx="-251.6" cy="258.7" r="12" fill="rgb(192, 192, 192)" />
<line x1="-251.6" y1="258.7" x2="-307.4" y2="331.5" style="stroke:rgb(192, 192, 192);stroke-width:16" />
<circle cx="-307.4" cy="331.5" r="12" fill="rgb(192, 192, 192)" />
<line x1="-307.4" y1="331.5" x2="-418.0" y2="343.8" style="stroke:rgb(192, 192, 192);stroke-width:16" />
<circle cx="-418.0" cy="343.8" r="12" fill="rgb(192, 192, 192)" />
<line x1="-418.0" y1="343.8" x2="-427.5" y2="451.6" style="stroke:rgb(192, 192, 192);stroke-width:16" />
<circle cx="-427.5" cy="451.6" r="12" fill="rgb(192, 192, 192)" />
<line x1="-418.0" y1="343.8" x2="-653.6" y2="372.2" style="stroke:rgb(192, 192, 192);stroke-width:16" />
<circle cx="-653.6" cy="372.2" r="12" fill="rgb(192, 192, 192)" />
<line x1="71.9" y1="145.2" x2="283.7" y2="47.3" style="stroke:rgb(192, 192, 192);stroke-width:16" />
<circle cx="283.7" cy="47.3" r="12" fill="rgb(192, 192, 192)" />
<line x1="283.7" y1="47.3" x2="488.0" y2="182.1" style="stroke:rgb(192, 192, 192);stroke-width:16" />
<circle cx="488.0" cy="182.1" r="12" fill="rgb(192, 192, 192)" />
<line x1="583.3" y1="-66.5" x2="734.0" y2="-102.6" style="stroke:rgb(255, 17, 17);stroke-width:16" />
<circle cx="734.0" cy="-102.6" r="20" fill="rgb(255, 17, 17)" />
<line x1="734.0" y1="-102.6" x2="870.6" y2="-193.0" style="stroke:rgb(255, 17, 17);stroke-width:16" />
<line x1="870.6" y1="-193.0" x2="909.9" y2="-219.0" style="stroke:rgb(255, 17, 17);stroke-width:16" />
<circle cx="909.9" cy="-219.0" r="20" fill="rgb(255, 17, 17)" />
<line x1="909.9" y1="-219.0" x2="950.7" y2="-162.0" style="stroke:rgb(255, 17, 17);stroke-width:16" />
<line x1="950.7" y1="-162.0" x2="909.9" y2="-219.0" style="stroke:rgb(255, 17, 17);stroke-width:16" />
<circle cx="909.9" cy="-219.0" r="20" fill="rgb(255, 17, 17)" />
<line x1="909.9" y1="-219.0" x2="870.6" y2="-193.0" style="stroke:rgb(255, 17, 17);stroke-width:16" />
<line x1="870.6" y1="-193.0" x2="734.0" y2="-102.6" style="stroke:rgb(255, 17, 17);stroke-width:16" />
<circle cx="734.0" cy="-102.6" r="20" fill="rgb(255, 17, 17)" />
<line x1="734.0" y1="-102.6" x2="768.9" y2="21.3" style="stroke:rgb(255, 17, 17);stroke-width:16" />
<circle cx="768.9" cy="21.3" r="20" fill="rgb(255, 17, 17)" />
<line x1="768.9" y1="21.3" x2="777.0" y2="83.2" style="stroke:rgb(255, 17, 17);stroke-width:16" />
<line x1="777.0" y1="83.2" x2="798.3" y2="245.4" style="stroke:rgb(255, 17, 17);stroke-width:16" />
<circle cx="798.3" cy="245.4" r="20" fill="rgb(255, 17, 17)" />
<line x1="798.3" y1="245.4" x2="956.1" y2="196.2" style="stroke:rgb(255, 17, 17);stroke-width:16" />
<line x1="956.1" y1="196.2" x2="798.3" y2="245.4" style="stroke:rgb(255, 17, 17);stroke-width:16" />
<circle cx="798.3" cy="245.4" r="20" fill="rgb(255, 17, 17)" />
<line x1="798.3" y1="245.4" x2="577.4" y2="200.3" style="stroke:rgb(255, 17, 17);stroke-width:16" />
<line x1="577.4" y1="200.3" x2="488.0" y2="182.1" style="stroke:rgb(255, 17, 17);stroke-width:16" />
<circle cx="488.0" cy="182.1" r="20" fill="rgb(255, 17, 17)" />
<line x1="488.0" y1="182.1" x2="273.8" y2="245.2" style="stroke:rgb(255, 17, 17);stroke-width:16" />
<line x1="273.8" y1="245.2" x2="133.6" y2="286.4" style="stroke:rgb(255, 17, 17);stroke-width:16" />
<line x1="133.6" y1="286.4" x2="273.8" y2="245.2" style="stroke:rgb(255, 17, 17);stroke-width:16" />
<line x1="273.8" y1="245.2" x2="488.0" y2="182.1" style="stroke:rgb(255, 17, 17);stroke-width:16" />
<circle cx="488.0" cy="182.1" r="20" fill="rgb(255, 17, 17)" />
<line x1="488.0" y1="182.1" x2="473.3" y2="75.7" style="stroke:rgb(255, 17, 17);stroke-width:16" />
<line x1="473.3" y1="75.7" x2="457.8" y2="-36.4" style="stroke:rgb(255, 17, 17);stroke-width:16" />
<circle cx="457.8" cy="-36.4" r="20" fill="rgb(255, 17, 17)" />
<line x1="457.8" y1="-36.4" x2="128.6" y2="-25.1" style="stroke:rgb(255, 17, 17);stroke-width:16" />
<circle cx="128.6" cy="-25.1" r="20" fill="rgb(255, 17, 17)" />
<line x1="128.6" y1="-25.1" x2="115.4" y2="48.7" style="stroke:rgb(255, 17, 17);stroke-width:16" />
<circle cx="115.4" cy="48.7" r="20" fill="rgb(255, 17, 17)" />
<line x1="115.4" y1="48.7" x2="71.9" y2="145.2" style="stroke:rgb(255, 17, 17);stroke-width:16" />
<circle cx="71.9" cy="145.2" r="20" fill="rgb(255, 17, 17)" />
<line x1="71.9" y1="145.2" x2="-105.0" y2="136.7" style="stroke:rgb(255, 17, 17);stroke-width:16" />
<circle cx="-105.0" cy="136.7" r="20" fill="rgb(255, 17, 17)" />
<line x1="-105.0" y1="136.7" x2="-122.9" y2="164.7" style="stroke:rgb(255, 17, 17);stroke-width:16" />
<line x1="-122.9" y1="164.7" x2="-105.0" y2="136.7" style="stroke:rgb(255, 17, 17);stroke-width:16" />
<circle cx="-105.0" cy="136.7" r="20" fill="rgb(255, 17, 17)" />
<line x1="-105.0" y1="136.7" x2="71.9" y2="145.2" style="stroke:rgb(255, 17, 17);stroke-width:16" />
<circle cx="71.9" cy="145.2" r="20" fill="rgb(255, 17, 17)" />
<line x1="71.9" y1="145.2" x2="115.4" y2="48.7" style="stroke:rgb(255, 17, 17);stroke-width:16" />
<circle cx="115.4" cy="48.7" r="20" fill="rgb(255, 17, 17)" />
<line x1="115.4" y1="48.7" x2="128.6" y2="-25.1" style="stroke:rgb(255, 17, 17);stroke-width:16" />
<circle cx="128.6" cy="-25.1" r="20" fill="rgb(255, 17, 17)" />
<line x1="128.6" y1="-25.1" x2="-66.2" y2="-3.3" style="stroke:rgb(255, 17, 17);stroke-width:16" />
<circle cx="-66.2" cy="-3.3" r="20" fill="rgb(255, 17, 17)" />
<line x1="-66.2" y1="-3.3" x2="-234.7" y2="17.9" style="stroke:rgb(255, 17, 17);stroke-width:16" />
<line x1="-234.7" y1="17.9" x2="-486.1" y2="49.6" style="stroke:rgb(255, 17, 17);stroke-width:16" />
<line x1="-486.1" y1="49.6" x2="-644.1" y2="69.5" style="stroke:rgb(255, 17, 17);stroke-width:16" />
<circle cx="-644.1" cy="69.5" r="20" fill="rgb(255, 17, 17)" />
<line x1="-644.1" y1="69.5" x2="-653.6" y2="372.2" style="stroke:rgb(255, 17, 17);stroke-width:16" />
<circle cx="-653.6" cy="372.2" r="20" fill="rgb(255, 17, 17)" />
<line x1="-653.6" y1="372.2" x2="-427.5" y2="451.6" style="stroke:rgb(255, 17, 17);stroke-width:16" />
<circle cx="-427.5" cy="451.6" r="20" fill="rgb(255, 17, 17)" />
<line x1="-427.5" y1="451.6" x2="-332.1" y2="423.5" style="stroke:rgb(255, 17, 17);stroke-width:16" />
<text font-size="14" dominant-baseline="central" text-anchor="middle" fill="rgb(127, 127, 127)" transform="translate(293.2, -30.7) rotate(-1.97493)">f: 0.07 km</text>
<text font-size="14" dominant-baseline="central" text-anchor="middle" fill="rgb(127, 127, 127)" transform="translate(595.9, -69.5) rotate(-13.4809)">g: 0.06 km</text>
<text font-size="14" dominant-baseline="central" text-anchor="middle" fill="rgb(127, 127, 127)" transform="translate(821.9, -160.8) rotate(-33.4763)">h: 0.04 km</text>
<text font-size="14" dominant-baseline="central" text-anchor="middle" fill="rgb(127, 127, 127)" transform="translate(963.8, -143.8) rotate(54.3602)">i: 0.04 km</text>
<text font-size="14" dominant-baseline="central" text-anchor="middle" fill="rgb(127, 127, 127)" transform="translate(1047.5, 44.9) rotate(75.2917)">j: 0.05 km</text>
<text font-size="14" dominant-baseline="central" text-anchor="middle" fill="rgb(127, 127, 127)" transform="translate(751.4, -40.7) rotate(74.228)">k: 0.03 km</text>
<text font-size="14" dominant-baseline="central" text-anchor="middle" fill="rgb(127, 127, 127)" transform="translate(824.3, -0.0) rotate(-21.0375)">l: 0.03 km</text>
<text font-size="14" dominant-baseline="central" text-anchor="middle" fill="rgb(127, 127, 127)" transform="translate(783.6, 133.4) rotate(82.5479)">m: 0.05 km</text>
<text font-size="14" dominant-baseline="central" text-anchor="middle" fill="rgb(127, 127, 127)" transform="translate(643.2, 213.8) rotate(11.5449)">n: 0.07 km</text>
<text font-size="14" dominant-baseline="central" text-anchor="middle" fill="rgb(127, 127, 127)" transform="translate(472.9, 72.8) rotate(82.1131)">p: 0.05 km</text>
<text font-size="14" dominant-baseline="central" text-anchor="middle" fill="rgb(127, 127, 127)" transform="translate(916.0, 41.1) rotate(59.7436)">q: 0.03 km</text>
<text font-size="14" dominant-baseline="central" text-anchor="middle" fill="rgb(127, 127, 127)" transform="translate(1014.9, 131.0) rotate(23.7204)">r: 0.03 km</text>
<text font-size="14" dominant-baseline="central" text-anchor="middle" fill="rgb(127, 127, 127)" transform="translate(937.8, 201.9) rotate(-17.3208)">s: 0.06 km</text>
<text font-size="14" dominant-baseline="central" text-anchor="middle" fill="rgb(127, 127, 127)" transform="translate(860.7, 62.4) rotate(24.154)">t: 0.04 km</text>
<text font-size="14" dominant-baseline="central" text-anchor="middle" fill="rgb(127, 127, 127)" transform="translate(-355.2, 33.1) rotate(-7.18272)">a: 0.12 km</text>
<text font-size="14" dominant-baseline="central" text-anchor="middle" fill="rgb(127, 127, 127)" transform="translate(31.2, -14.2) rotate(-6.37072)">b: 0.04 km</text>
<text font-size="14" dominant-baseline="central" text-anchor="middle" fill="rgb(127, 127, 127)" transform="translate(-648.8, 220.8) rotate(-88.2101)">c: 0.06 km</text>
<text font-size="14" dominant-baseline="central" text-anchor="middle" fill="rgb(127, 127, 127)" transform="translate(-540.5, 411.9) rotate(19.3648)">d: 0.05 km</text>
<text font-size="14" dominant-baseline="central" text-anchor="middle" fill="rgb(127, 127, 127)" transform="translate(30.3, 316.8) rotate(-16.4056)">e: 0.20 km</text>
<text font-size="14" dominant-baseline="central" text-anchor="middle" fill="rgb(127, 127, 127)" transform="translate(122.0, 11.8) rotate(-79.8245)">g1: 0.02 km</text>
<text font-size="14" dominant-baseline="central" text-anchor="middle" fill="rgb(127, 127, 127)" transform="translate(93.6, 96.9) rotate(-65.7256)">h1: 0.02 km</text>
<text font-size="14" dominant-baseline="central" text-anchor="middle" fill="rgb(127, 127, 127)" transform="translate(-16.6, 140.9) rotate(2.75543)">i1: 0.04 km</text>
<text font-size="14" dominant-baseline="central" text-anchor="middle" fill="rgb(127, 127, 127)" transform="translate(-137.6, 187.7) rotate(-57.4259)">j1: 0.03 km</text>
<text font-size="14" dominant-baseline="central" text-anchor="middle" fill="rgb(127, 127, 127)" transform="translate(-210.9, 248.7) rotate(-13.7223)">k1: 0.02 km</text>
<text font-size="14" dominant-baseline="central" text-anchor="middle" fill="rgb(127, 127, 127)" transform="translate(-279.5, 295.1) rotate(-52.5394)">l1: 0.02 km</text>
<text font-size="14" dominant-baseline="central" text-anchor="middle" fill="rgb(127, 127, 127)" transform="translate(-362.7, 337.7) rotate(-6.34019)">m1: 0.02 km</text>
<text font-size="14" dominant-baseline="central" text-anchor="middle" fill="rgb(127, 127, 127)" transform="translate(-422.8, 397.7) rotate(-84.9869)">n1: 0.02 km</text>
<text font-size="14" dominant-baseline="central" text-anchor="middle" fill="rgb(127, 127, 127)" transform="translate(-535.8, 358.0) rotate(-6.86999)">p1: 0.05 km</text>
<text font-size="14" dominant-baseline="central" text-anchor="middle" fill="rgb(127, 127, 127)" transform="translate(177.8, 96.2) rotate(-24.7995)">q1: 0.05 km</text>
<text font-size="14" dominant-baseline="central" text-anchor="middle" fill="rgb(127, 127, 127)" transform="translate(385.9, 114.7) rotate(33.4137)">r1: 0.05 km</text>
<line x1="583.3" y1="-66.5" x2="562.8" y2="-152.3" style="stroke:rgb(0, 162, 232);stroke-width:16" />
<circle cx="583.3" cy="-66.5" r="12" fill="rgb(0, 162, 232)" />
<circle cx="562.8" cy="-152.3" r="20" fill="rgb(0, 162, 232)" />
<text x="582.8" y="-172.3" font-size="24" text-anchor="start" fill="black">kodu</text>
<text x="562.8" y="-152.3" font-size="24" dominant-baseline="central" text-anchor="middle" fill="black">1.</text>
<line x1="870.6" y1="-193.0" x2="894.7" y2="-156.5" style="stroke:rgb(0, 162, 232);stroke-width:16" />
<circle cx="870.6" cy="-193.0" r="12" fill="rgb(0, 162, 232)" />
<circle cx="894.7" cy="-156.5" r="20" fill="rgb(0, 162, 232)" />
<text x="914.7" y="-176.5" font-size="24" text-anchor="start" fill="black">tallegg</text>
<text x="894.7" y="-156.5" font-size="24" dominant-baseline="central" text-anchor="middle" fill="black">2.</text>
<line x1="950.7" y1="-162.0" x2="1071.6" y2="-248.7" style="stroke:rgb(0, 162, 232);stroke-width:16" />
<circle cx="950.7" cy="-162.0" r="12" fill="rgb(0, 162, 232)" />
<circle cx="1071.6" cy="-248.7" r="20" fill="rgb(0, 162, 232)" />
<text x="1091.6" y="-268.7" font-size="24" text-anchor="start" fill="black">estonia</text>
<text x="1071.6" y="-248.7" font-size="24" dominant-baseline="central" text-anchor="middle" fill="black">3.</text>
<line x1="777.0" y1="83.2" x2="686.2" y2="95.1" style="stroke:rgb(0, 162, 232);stroke-width:16" />
<circle cx="777.0" cy="83.2" r="12" fill="rgb(0, 162, 232)" />
<circle cx="686.2" cy="95.1" r="20" fill="rgb(0, 162, 232)" />
<text x="706.2" y="75.1" font-size="24" text-anchor="start" fill="black">selver</text>
<text x="686.2" y="95.1" font-size="24" dominant-baseline="central" text-anchor="middle" fill="black">4.</text>
<line x1="956.1" y1="196.2" x2="965.7" y2="227.0" style="stroke:rgb(0, 162, 232);stroke-width:16" />
<circle cx="956.1" cy="196.2" r="12" fill="rgb(0, 162, 232)" />
<circle cx="965.7" cy="227.0" r="20" fill="rgb(0, 162, 232)" />
<text x="985.7" y="207.0" font-size="24" text-anchor="start" fill="black">prisma</text>
<text x="965.7" y="227.0" font-size="24" dominant-baseline="central" text-anchor="middle" fill="black">5.</text>
<line x1="577.4" y1="200.3" x2="570.3" y2="235.0" style="stroke:rgb(0, 162, 232);stroke-width:16" />
<circle cx="577.4" cy="200.3" r="12" fill="rgb(0, 162, 232)" />
<circle cx="570.3" cy="235.0" r="20" fill="rgb(0, 162, 232)" />
<text x="590.3" y="215.0" font-size="24" text-anchor="start" fill="black">maxima</text>
<text x="570.3" y="235.0" font-size="24" dominant-baseline="central" text-anchor="middle" fill="black">6.</text>
<line x1="273.8" y1="245.2" x2="254.0" y2="177.8" style="stroke:rgb(0, 162, 232);stroke-width:16" />
<circle cx="273.8" cy="245.2" r="12" fill="rgb(0, 162, 232)" />
<circle cx="254.0" cy="177.8" r="20" fill="rgb(0, 162, 232)" />
<text x="274.0" y="157.8" font-size="24" text-anchor="start" fill="black">kodu2</text>
<text x="254.0" y="177.8" font-size="24" dominant-baseline="central" text-anchor="middle" fill="black">7.</text>
<line x1="133.6" y1="286.4" x2="120.1" y2="240.7" style="stroke:rgb(0, 162, 232);stroke-width:16" />
<circle cx="133.6" cy="286.4" r="12" fill="rgb(0, 162, 232)" />
<circle cx="120.1" cy="240.7" r="20" fill="rgb(0, 162, 232)" />
<text x="140.1" y="220.7" font-size="24" text-anchor="start" fill="black">suvila</text>
<text x="120.1" y="240.7" font-size="24" dominant-baseline="central" text-anchor="middle" fill="black">8.</text>
<line x1="473.3" y1="75.7" x2="572.2" y2="62.0" style="stroke:rgb(0, 162, 232);stroke-width:16" />
<circle cx="473.3" cy="75.7" r="12" fill="rgb(0, 162, 232)" />
<circle cx="572.2" cy="62.0" r="20" fill="rgb(0, 162, 232)" />
<text x="592.2" y="42.0" font-size="24" text-anchor="start" fill="black">rand</text>
<text x="572.2" y="62.0" font-size="24" dominant-baseline="central" text-anchor="middle" fill="black">9.</text>
<line x1="-122.9" y1="164.7" x2="-160.8" y2="140.5" style="stroke:rgb(0, 162, 232);stroke-width:16" />
<circle cx="-122.9" cy="164.7" r="12" fill="rgb(0, 162, 232)" />
<circle cx="-160.8" cy="140.5" r="20" fill="rgb(0, 162, 232)" />
<text x="-140.8" y="120.5" font-size="24" text-anchor="start" fill="black">kontor</text>
<text x="-160.8" y="140.5" font-size="24" dominant-baseline="central" text-anchor="middle" fill="black">10.</text>
<line x1="-234.7" y1="17.9" x2="-243.1" y2="-48.2" style="stroke:rgb(0, 162, 232);stroke-width:16" />
<circle cx="-234.7" cy="17.9" r="12" fill="rgb(0, 162, 232)" />
<circle cx="-243.1" cy="-48.2" r="20" fill="rgb(0, 162, 232)" />
<text x="-223.1" y="-68.2" font-size="24" text-anchor="start" fill="black">rimi</text>
<text x="-243.1" y="-48.2" font-size="24" dominant-baseline="central" text-anchor="middle" fill="black">11.</text>
<line x1="-486.1" y1="49.6" x2="-473.4" y2="150.4" style="stroke:rgb(0, 162, 232);stroke-width:16" />
<circle cx="-486.1" cy="49.6" r="12" fill="rgb(0, 162, 232)" />
<circle cx="-473.4" cy="150.4" r="20" fill="rgb(0, 162, 232)" />
<text x="-453.4" y="130.4" font-size="24" text-anchor="start" fill="black">pood</text>
<text x="-473.4" y="150.4" font-size="24" dominant-baseline="central" text-anchor="middle" fill="black">12.</text>
<line x1="-332.1" y1="423.5" x2="-339.5" y2="398.2" style="stroke:rgb(0, 162, 232);stroke-width:16" />
<circle cx="-332.1" cy="423.5" r="12" fill="rgb(0, 162, 232)" />
<circle cx="-339.5" cy="398.2" r="20" fill="rgb(0, 162, 232)" />
<text x="-319.5" y="378.2" font-size="24" text-anchor="start" fill="black">kodu3</text>
<text x="-339.5" y="398.2" font-size="24" dominant-baseline="central" text-anchor="middle" fill="black">13.</text>

</svg>
