<svg version="1.1" width="1920" height="993" viewBox="-747 -425 1920 993" font-family="Hermit" xmlns="http://www.w3.org/2000/svg">
<rect x="-747" y="-425" width="100%" height="100%" fill="rgb(240, 240, 240)" />

<line x1="128.6" y1="-25.1" x2="457.8" y2="-36.4" style="stroke:rgb(192, 192, 192);stroke-width:16" />
<circle cx="128.6" cy="-25.1" r="12" fill="rgb(192, 192, 192)" />
<circle cx="457.8" cy="-36.4" r="12" fill="rgb(192, 192, 192)" />
<line x1="457.8" y1="-36.4" x2="734.0" y2="-102.6" style="stroke:rgb(192, 192, 192);stroke-width:16" />
<circle cx="734.0" cy="-102.6" r="12" fill="rgb(192, 192, 192)" />
<line x1="734.0" y1="-102.6" x2="909.9" y2="-219.0" style="stroke:rgb(192, 192, 192);stroke-width:16" />
<circle cx="909.9" cy="-219.0" r="12" fill="rgb(192, 192, 192)" />
<line x1="909.9" y1="-219.0" x2="1017.7" y2="-68.6" style="stroke:rgb(192, 192, 192);stroke-width:16" />
<circle cx="1017.7" cy="-68.6" r="12" fill="rgb(192, 192, 192)" />
<line x1="1017.7" y1="-68.6" x2="1077.3" y2="158.4" style="stroke:rgb(192, 192, 192);stroke-width:16" />
<circle cx="1077.3" cy="158.4" r="12" fill="rgb(192, 192, 192)" />
<line x1="734.0" y1="-102.6" x2="768.9" y2="21.3" style="stroke:rgb(192, 192, 192);stroke-width:16" />
<circle cx="768.9" cy="21.3" r="12" fill="rgb(192, 192, 192)" />
<line x1="768.9" y1="21.3" x2="879.6" y2="-21.3" style="stroke:rgb(192, 192, 192);stroke-width:16" />
<circle cx="879.6" cy="-21.3" r="12" fill="rgb(192, 192, 192)" />
<line x1="768.9" y1="21.3" x2="798.3" y2="245.4" style="stroke:rgb(192, 192, 192);stroke-width:16" />
<circle cx="798.3" cy="245.4" r="12" fill="rgb(192, 192, 192)" />
<line x1="798.3" y1="245.4" x2="488.0" y2="182.1" style="stroke:rgb(192, 192, 192);stroke-width:16" />
<circle cx="488.0" cy="182.1" r="12" fill="rgb(192, 192, 192)" />
<line x1="488.0" y1="182.1" x2="457.8" y2="-36.4" style="stroke:rgb(192, 192, 192);stroke-width:16" />
<circle cx="457.8" cy="-36.4" r="12" fill="rgb(192, 192, 192)" />
<line x1="879.6" y1="-21.3" x2="952.4" y2="103.6" style="stroke:rgb(192, 192, 192);stroke-width:16" />
<circle cx="952.4" cy="103.6" r="12" fill="rgb(192, 192, 192)" />
<line x1="952.4" y1="103.6" x2="1077.3" y2="158.4" style="stroke:rgb(192, 192, 192);stroke-width:16" />
<circle cx="1077.3" cy="158.4" r="12" fill="rgb(192, 192, 192)" />
<line x1="1077.3" y1="158.4" x2="798.3" y2="245.4" style="stroke:rgb(192, 192, 192);stroke-width:16" />
<circle cx="798.3" cy="245.4" r="12" fill="rgb(192, 192, 192)" />
<line x1="952.4" y1="103.6" x2="768.9" y2="21.3" style="stroke:rgb(192, 192, 192);stroke-width:16" />
<circle cx="768.9" cy="21.3" r="12" fill="rgb(192, 192, 192)" />
<line x1="-644.1" y1="69.5" x2="-66.2" y2="-3.3" style="stroke:rgb(192, 192, 192);stroke-width:16" />
<circle cx="-66.2" cy="-3.3" r="12" fill="rgb(192, 192, 192)" />
<line x1="-66.2" y1="-3.3" x2="128.6" y2="-25.1" style="stroke:rgb(192, 192, 192);stroke-width:16" />
<circle cx="128.6" cy="-25.1" r="12" fill="rgb(192, 192, 192)" />
<line x1="-653.6" y1="372.2" x2="-644.1" y2="69.5" style="stroke:rgb(192, 192, 192);stroke-width:16" />
<circle cx="-644.1" cy="69.5" r="12" fill="rgb(192, 192, 192)" />
<line x1="-653.6" y1="372.2" x2="-427.5" y2="451.6" style="stroke:rgb(192, 192, 192);stroke-width:16" />
<circle cx="-427.5" cy="451.6" r="12" fill="rgb(192, 192, 192)" />
<line x1="-427.5" y1="451.6" x2="488.0" y2="182.1" style="stroke:rgb(192, 192, 192);stroke-width:16" />
<circle cx="488.0" cy="182.1" r="12" fill="rgb(192, 192, 192)" />
<line x1="-66.2" y1="-3.3" x2="-653.6" y2="372.2" style="stroke:rgb(192, 192, 192);stroke-width:16" />
<circle cx="-653.6" cy="372.2" r="12" fill="rgb(192, 192, 192)" />
<line x1="128.6" y1="-25.1" x2="115.4" y2="48.7" style="stroke:rgb(192, 192, 192);stroke-width:16" />
<circle cx="115.4" cy="48.7" r="12" fill="rgb(192, 192, 192)" />
<line x1="71.9" y1="145.2" x2="115.4" y2="48.7" style="stroke:rgb(192, 192, 192);stroke-width:16" />
<circle cx="115.4" cy="48.7" r="12" fill="rgb(192, 192, 192)" />
<line x1="-105.0" y1="136.7" x2="71.9" y2="145.2" style="stroke:rgb(192, 192, 192);stroke-width:16" />
<circle cx="71.9" cy="145.2" r="12" fill="rgb(192, 192, 192)" />
<line x1="-105.0" y1="136.7" x2="-170.2" y2="238.8" style="stroke:rgb(192, 192, 192);stroke-width:16" />
<circle cx="-170.2" cy="238.8" r="12" fill="rgb(192, 192, 192)" />
<line x1="-170.2" y1="238.8" x2="-251.6" y2="258.7" style="stroke:rgb(192, 192, 192);stroke-width:16" />
<circle cx="-251.6" cy="258.7" r="12" fill="rgb(192, 192, 192)" />
<line x1="-251.6" y1="258.7" x2="-307.4" y2="331.5" style="stroke:rgb(192, 192, 192);stroke-width:16" />
<circle cx="-307.4" cy="331.5" r="12" fill="rgb(192, 192, 192)" />
<line x1="-307.4" y1="331.5" x2="-418.0" y2="343.8" style="stroke:rgb(192, 192, 192);stroke-width:16" />
<circle cx="-418.0" cy="343.8" r="12" fill="rgb(192, 192, 192)" />
<line x1="-418.0" y1="343.8" x2="-427.5" y2="451.6" style="stroke:rgb(192, 192, 192);stroke-width:16" />
<circle cx="-427.5" cy="451.6" r="12" fill="rgb(192, 192, 192)" />
<line x1="-418.0" y1="343.8" x2="-653.6" y2="372.2" style="stroke:rgb(192, 192, 192);stroke-width:16" />
<circle cx="-653.6" cy="372.2" r="12" fill="rgb(192, 192, 192)" />
<line x1="71.9" y1="145.2" x2="283.7" y2="47.3" style="stroke:rgb(192, 192, 192);stroke-width:16" />
<circle cx="283.7" cy="47.3" r="12" fill="rgb(192, 192, 192)" />
<line x1="283.7" y1="47.3" x2="488.0" y2="182.1" style="stroke:rgb(192, 192, 192);stroke-width:16" />
<circle cx="488.0" cy="182.1" r="12" fill="rgb(192, 192, 192)" />
<line x1="-170.4" y1="375.9" x2="-427.5" y2="451.6" style="stroke:rgb(255, 17, 17);stroke-width:16" />
<circle cx="-427.5" cy="451.6" r="20" fill="rgb(255, 17, 17)" />
<line x1="-427.5" y1="451.6" x2="-653.6" y2="372.2" style="stroke:rgb(255, 17, 17);stroke-width:16" />
<circle cx="-653.6" cy="372.2" r="20" fill="rgb(255, 17, 17)" />
<line x1="-653.6" y1="372.2" x2="-475.8" y2="258.6" style="stroke:rgb(255, 17, 17);stroke-width:16" />
<line x1="-475.8" y1="258.6" x2="-164.3" y2="59.4" style="stroke:rgb(255, 17, 17);stroke-width:16" />
<line x1="-164.3" y1="59.4" x2="-66.2" y2="-3.3" style="stroke:rgb(255, 17, 17);stroke-width:16" />
<circle cx="-66.2" cy="-3.3" r="20" fill="rgb(255, 17, 17)" />
<line x1="-66.2" y1="-3.3" x2="-455.2" y2="45.7" style="stroke:rgb(255, 17, 17);stroke-width:16" />
<line x1="-455.2" y1="45.7" x2="-66.2" y2="-3.3" style="stroke:rgb(255, 17, 17);stroke-width:16" />
<circle cx="-66.2" cy="-3.3" r="20" fill="rgb(255, 17, 17)" />
<line x1="-66.2" y1="-3.3" x2="13.9" y2="-12.3" style="stroke:rgb(255, 17, 17);stroke-width:16" />
<line x1="13.9" y1="-12.3" x2="128.6" y2="-25.1" style="stroke:rgb(255, 17, 17);stroke-width:16" />
<circle cx="128.6" cy="-25.1" r="20" fill="rgb(255, 17, 17)" />
<line x1="128.6" y1="-25.1" x2="457.8" y2="-36.4" style="stroke:rgb(255, 17, 17);stroke-width:16" />
<circle cx="457.8" cy="-36.4" r="20" fill="rgb(255, 17, 17)" />
<line x1="457.8" y1="-36.4" x2="640.9" y2="-80.3" style="stroke:rgb(255, 17, 17);stroke-width:16" />
<line x1="640.9" y1="-80.3" x2="734.0" y2="-102.6" style="stroke:rgb(255, 17, 17);stroke-width:16" />
<circle cx="734.0" cy="-102.6" r="20" fill="rgb(255, 17, 17)" />
<line x1="734.0" y1="-102.6" x2="909.9" y2="-219.0" style="stroke:rgb(255, 17, 17);stroke-width:16" />
<line x1="909.9" y1="-219.0" x2="909.9" y2="-219.0" style="stroke:rgb(255, 17, 17);stroke-width:16" />
<circle cx="909.9" cy="-219.0" r="20" fill="rgb(255, 17, 17)" />
<line x1="909.9" y1="-219.0" x2="1017.7" y2="-68.6" style="stroke:rgb(255, 17, 17);stroke-width:16" />
<circle cx="1017.7" cy="-68.6" r="20" fill="rgb(255, 17, 17)" />
<line x1="1017.7" y1="-68.6" x2="1046.1" y2="39.6" style="stroke:rgb(255, 17, 17);stroke-width:16" />
<line x1="1046.1" y1="39.6" x2="1077.3" y2="158.4" style="stroke:rgb(255, 17, 17);stroke-width:16" />
<circle cx="1077.3" cy="158.4" r="20" fill="rgb(255, 17, 17)" />
<line x1="1077.3" y1="158.4" x2="952.4" y2="103.6" style="stroke:rgb(255, 17, 17);stroke-width:16" />
<circle cx="952.4" cy="103.6" r="20" fill="rgb(255, 17, 17)" />
<line x1="952.4" y1="103.6" x2="905.7" y2="23.4" style="stroke:rgb(255, 17, 17);stroke-width:16" />
<line x1="905.7" y1="23.4" x2="879.6" y2="-21.3" style="stroke:rgb(255, 17, 17);stroke-width:16" />
<circle cx="879.6" cy="-21.3" r="20" fill="rgb(255, 17, 17)" />
<line x1="879.6" y1="-21.3" x2="768.9" y2="21.3" style="stroke:rgb(255, 17, 17);stroke-width:16" />
<circle cx="768.9" cy="21.3" r="20" fill="rgb(255, 17, 17)" />
<line x1="768.9" y1="21.3" x2="798.3" y2="245.4" style="stroke:rgb(255, 17, 17);stroke-width:16" />
<circle cx="798.3" cy="245.4" r="20" fill="rgb(255, 17, 17)" />
<line x1="798.3" y1="245.4" x2="592.5" y2="203.4" style="stroke:rgb(255, 17, 17);stroke-width:16" />
<line x1="592.5" y1="203.4" x2="488.0" y2="182.1" style="stroke:rgb(255, 17, 17);stroke-width:16" />
<circle cx="488.0" cy="182.1" r="20" fill="rgb(255, 17, 17)" />
<line x1="488.0" y1="182.1" x2="316.7" y2="69.0" style="stroke:rgb(255, 17, 17);stroke-width:16" />
<line x1="316.7" y1="69.0" x2="283.7" y2="47.3" style="stroke:rgb(255, 17, 17);stroke-width:16" />
<circle cx="283.7" cy="47.3" r="20" fill="rgb(255, 17, 17)" />
<line x1="283.7" y1="47.3" x2="82.8" y2="140.1" style="stroke:rgb(255, 17, 17);stroke-width:16" />
<line x1="82.8" y1="140.1" x2="71.9" y2="145.2" style="stroke:rgb(255, 17, 17);stroke-width:16" />
<circle cx="71.9" cy="145.2" r="20" fill="rgb(255, 17, 17)" />
<line x1="71.9" y1="145.2" x2="-105.0" y2="136.7" style="stroke:rgb(255, 17, 17);stroke-width:16" />
<circle cx="-105.0" cy="136.7" r="20" fill="rgb(255, 17, 17)" />
<line x1="-105.0" y1="136.7" x2="-125.8" y2="169.2" style="stroke:rgb(255, 17, 17);stroke-width:16" />
<line x1="-125.8" y1="169.2" x2="-105.0" y2="136.7" style="stroke:rgb(255, 17, 17);stroke-width:16" />
<circle cx="-105.0" cy="136.7" r="20" fill="rgb(255, 17, 17)" />
<line x1="-105.0" y1="136.7" x2="71.9" y2="145.2" style="stroke:rgb(255, 17, 17);stroke-width:16" />
<circle cx="71.9" cy="145.2" r="20" fill="rgb(255, 17, 17)" />
<line x1="71.9" y1="145.2" x2="82.8" y2="140.1" style="stroke:rgb(255, 17, 17);stroke-width:16" />
<text font-size="14" dominant-baseline="central" text-anchor="middle" fill="rgb(127, 127, 127)" transform="translate(293.2, -30.7) rotate(-1.97493)">f: 0.07 km</text>
<text font-size="14" dominant-baseline="central" text-anchor="middle" fill="rgb(127, 127, 127)" transform="translate(595.9, -69.5) rotate(-13.4809)">g: 0.06 km</text>
<text font-size="14" dominant-baseline="central" text-anchor="middle" fill="rgb(127, 127, 127)" transform="translate(821.9, -160.8) rotate(-33.4763)">h: 0.04 km</text>
<text font-size="14" dominant-baseline="central" text-anchor="middle" fill="rgb(127, 127, 127)" transform="translate(963.8, -143.8) rotate(54.3602)">i: 0.04 km</text>
<text font-size="14" dominant-baseline="central" text-anchor="middle" fill="rgb(127, 127, 127)" transform="translate(1047.5, 44.9) rotate(75.2917)">j: 0.05 km</text>
<text font-size="14" dominant-baseline="central" text-anchor="middle" fill="rgb(127, 127, 127)" transform="translate(751.4, -40.7) rotate(74.228)">k: 0.03 km</text>
<text font-size="14" dominant-baseline="central" text-anchor="middle" fill="rgb(127, 127, 127)" transform="translate(824.3, -0.0) rotate(-21.0375)">l: 0.03 km</text>
<text font-size="14" dominant-baseline="central" text-anchor="middle" fill="rgb(127, 127, 127)" transform="translate(783.6, 133.4) rotate(82.5479)">m: 0.05 km</text>
<text font-size="14" dominant-baseline="central" text-anchor="middle" fill="rgb(127, 127, 127)" transform="translate(643.2, 213.8) rotate(11.5449)">n: 0.07 km</text>
<text font-size="14" dominant-baseline="central" text-anchor="middle" fill="rgb(127, 127, 127)" transform="translate(472.9, 72.8) rotate(82.1131)">p: 0.05 km</text>
<text font-size="14" dominant-baseline="central" text-anchor="middle" fill="rgb(127, 127, 127)" transform="translate(916.0, 41.1) rotate(59.7436)">q: 0.03 km</text>
<text font-size="14" dominant-baseline="central" text-anchor="middle" fill="rgb(127, 127, 127)" transform="translate(1014.9, 131.0) rotate(23.7204)">r: 0.03 km</text>
<text font-size="14" dominant-baseline="central" text-anchor="middle" fill="rgb(127, 127, 127)" transform="translate(937.8, 201.9) rotate(-17.3208)">s: 0.06 km</text>
<text font-size="14" dominant-baseline="central" text-anchor="middle" fill="rgb(127, 127, 127)" transform="translate(860.7, 62.4) rotate(24.154)">t: 0.04 km</text>
<text font-size="14" dominant-baseline="central" text-anchor="middle" fill="rgb(127, 127, 127)" transform="translate(-355.2, 33.1) rotate(-7.18272)">a: 0.12 km</text>
<text font-size="14" dominant-baseline="central" text-anchor="middle" fill="rgb(127, 127, 127)" transform="translate(31.2, -14.2) rotate(-6.37072)">b: 0.04 km</text>
<text font-size="14" dominant-baseline="central" text-anchor="middle" fill="rgb(127, 127, 127)" transform="translate(-648.8, 220.8) rotate(-88.2101)">c: 0.06 km</text>
<text font-size="14" dominant-baseline="central" text-anchor="middle" fill="rgb(127, 127, 127)" transform="translate(-540.5, 411.9) rotate(19.3648)">d: 0.05 km</text>
<text font-size="14" dominant-baseline="central" text-anchor="middle" fill="rgb(127, 127, 127)" transform="translate(30.3, 316.8) rotate(-16.4056)">e: 0.20 km</text>
<text font-size="14" dominant-baseline="central" text-anchor="middle" fill="rgb(127, 127, 127)" transform="translate(-359.9, 184.4) rotate(-32.5904)">f1: 0.15 km</text>
<text font-size="14" dominant-baseline="central" text-anchor="middle" fill="rgb(127, 127, 127)" transform="translate(122.0, 11.8) rotate(-79.8245)">g1: 0.02 km</text>
<text font-size="14" dominant-baseline="central" text-anchor="middle" fill="rgb(127, 127, 127)" transform="translate(93.6, 96.9) rotate(-65.7256)">h1: 0.02 km</text>
<text font-size="14" dominant-baseline="central" text-anchor="middle" fill="rgb(127, 127, 127)" transform="translate(-16.6, 140.9) rotate(2.75543)">i1: 0.04 km</text>
<text font-size="14" dominant-baseline="central" text-anchor="middle" fill="rgb(127, 127, 127)" transform="translate(-137.6, 187.7) rotate(-57.4259)">j1: 0.03 km</text>
<text font-size="14" dominant-baseline="central" text-anchor="middle" fill="rgb(127, 127, 127)" transform="translate(-210.9, 248.7) rotate(-13.7223)">k1: 0.02 km</text>
<text font-size="14" dominant-baseline="central" text-anchor="middle" fill="rgb(127, 127, 127)" transform="translate(-279.5, 295.1) rotate(-52.5394)">l1: 0.02 km</text>
<text font-size="14" dominant-baseline="central" text-anchor="middle" fill="rgb(127, 127, 127)" transform="translate(-362.7, 337.7) rotate(-6.34019)">m1: 0.02 km</text>
<text font-size="14" dominant-baseline="central" text-anchor="middle" fill="rgb(127, 127, 127)" transform="translate(-422.8, 397.7) rotate(-84.9869)">n1: 0.02 km</text>
<text font-size="14" dominant-baseline="central" text-anchor="middle" fill="rgb(127, 127, 127)" transform="translate(-535.8, 358.0) rotate(-6.86999)">p1: 0.05 km</text>
<text font-size="14" dominant-baseline="central" text-anchor="middle" fill="rgb(127, 127, 127)" transform="translate(177.8, 96.2) rotate(-24.7995)">q1: 0.05 km</text>
<text font-size="14" dominant-baseline="central" text-anchor="middle" fill="rgb(127, 127, 127)" transform="translate(385.9, 114.7) rotate(33.4137)">r1: 0.05 km</text>
<line x1="-170.4" y1="375.9" x2="-141.9" y2="472.9" style="stroke:rgb(0, 162, 232);stroke-width:16" />
<circle cx="-170.4" cy="375.9" r="12" fill="rgb(0, 162, 232)" />
<text x="-141.9" y="472.9" font-size="24" dominant-baseline="central" text-anchor="middle" fill="black">1.</text>
<line x1="-475.8" y1="258.6" x2="-520.2" y2="189.2" style="stroke:rgb(0, 162, 232);stroke-width:16" />
<circle cx="-475.8" cy="258.6" r="12" fill="rgb(0, 162, 232)" />
<text x="-520.2" y="189.2" font-size="24" dominant-baseline="central" text-anchor="middle" fill="black">2.</text>
<line x1="-164.3" y1="59.4" x2="-141.9" y2="94.6" style="stroke:rgb(0, 162, 232);stroke-width:16" />
<circle cx="-164.3" cy="59.4" r="12" fill="rgb(0, 162, 232)" />
<text x="-141.9" y="94.6" font-size="24" dominant-baseline="central" text-anchor="middle" fill="black">3.</text>
<line x1="-455.2" y1="45.7" x2="-472.9" y2="-94.6" style="stroke:rgb(0, 162, 232);stroke-width:16" />
<circle cx="-455.2" cy="45.7" r="12" fill="rgb(0, 162, 232)" />
<text x="-472.9" y="-94.6" font-size="24" dominant-baseline="central" text-anchor="middle" fill="black">4.</text>
<line x1="13.9" y1="-12.3" x2="4.7" y2="-94.6" style="stroke:rgb(0, 162, 232);stroke-width:16" />
<circle cx="13.9" cy="-12.3" r="12" fill="rgb(0, 162, 232)" />
<text x="4.7" y="-94.6" font-size="24" dominant-baseline="central" text-anchor="middle" fill="black">5.</text>
<line x1="640.9" y1="-80.3" x2="614.8" y2="-189.2" style="stroke:rgb(0, 162, 232);stroke-width:16" />
<circle cx="640.9" cy="-80.3" r="12" fill="rgb(0, 162, 232)" />
<text x="614.8" y="-189.2" font-size="24" dominant-baseline="central" text-anchor="middle" fill="black">6.</text>
<line x1="909.9" y1="-219.0" x2="945.8" y2="-331.0" style="stroke:rgb(0, 162, 232);stroke-width:16" />
<circle cx="909.9" cy="-219.0" r="12" fill="rgb(0, 162, 232)" />
<text x="945.8" y="-331.0" font-size="24" dominant-baseline="central" text-anchor="middle" fill="black">7.</text>
<line x1="1046.1" y1="39.6" x2="1016.7" y2="47.3" style="stroke:rgb(0, 162, 232);stroke-width:16" />
<circle cx="1046.1" cy="39.6" r="12" fill="rgb(0, 162, 232)" />
<text x="1016.7" y="47.3" font-size="24" dominant-baseline="central" text-anchor="middle" fill="black">8.</text>
<line x1="905.7" y1="23.4" x2="945.8" y2="-0.0" style="stroke:rgb(0, 162, 232);stroke-width:16" />
<circle cx="905.7" cy="23.4" r="12" fill="rgb(0, 162, 232)" />
<text x="945.8" y="-0.0" font-size="24" dominant-baseline="central" text-anchor="middle" fill="black">9.</text>
<line x1="592.5" y1="203.4" x2="614.8" y2="94.6" style="stroke:rgb(0, 162, 232);stroke-width:16" />
<circle cx="592.5" cy="203.4" r="12" fill="rgb(0, 162, 232)" />
<text x="614.8" y="94.6" font-size="24" dominant-baseline="central" text-anchor="middle" fill="black">10.</text>
<line x1="316.7" y1="69.0" x2="331.0" y2="47.3" style="stroke:rgb(0, 162, 232);stroke-width:16" />
<circle cx="316.7" cy="69.0" r="12" fill="rgb(0, 162, 232)" />
<text x="331.0" y="47.3" font-size="24" dominant-baseline="central" text-anchor="middle" fill="black">11.</text>
<line x1="-125.8" y1="169.2" x2="-94.6" y2="189.2" style="stroke:rgb(0, 162, 232);stroke-width:16" />
<circle cx="-125.8" cy="169.2" r="12" fill="rgb(0, 162, 232)" />
<text x="-94.6" y="189.2" font-size="24" dominant-baseline="central" text-anchor="middle" fill="black">12.</text>
<line x1="82.8" y1="140.1" x2="94.6" y2="165.5" style="stroke:rgb(0, 162, 232);stroke-width:16" />
<circle cx="82.8" cy="140.1" r="12" fill="rgb(0, 162, 232)" />
<text x="94.6" y="165.5" font-size="24" dominant-baseline="central" text-anchor="middle" fill="black">13.</text>
<circle cx="-141.9" cy="472.9" r="20" fill="rgb(0, 162, 232)" />
<text x="-121.9" y="452.9" font-size="24" text-anchor="start" fill="black">kwik-e-mart</text>
<circle cx="-520.2" cy="189.2" r="20" fill="rgb(0, 162, 232)" />
<text x="-500.2" y="169.2" font-size="24" text-anchor="start" fill="black">selver</text>
<circle cx="-141.9" cy="94.6" r="20" fill="rgb(0, 162, 232)" />
<text x="-121.9" y="74.6" font-size="24" text-anchor="start" fill="black">walmart</text>
<circle cx="-472.9" cy="-94.6" r="20" fill="rgb(0, 162, 232)" />
<text x="-452.9" y="-114.6" font-size="24" text-anchor="start" fill="black">coop</text>
<circle cx="4.7" cy="-94.6" r="20" fill="rgb(0, 162, 232)" />
<text x="24.7" y="-114.6" font-size="24" text-anchor="start" fill="black">pood</text>
<circle cx="614.8" cy="-189.2" r="20" fill="rgb(0, 162, 232)" />
<text x="634.8" y="-209.2" font-size="24" text-anchor="start" fill="black">bauhof</text>
<circle cx="945.8" cy="-331.0" r="20" fill="rgb(0, 162, 232)" />
<text x="965.8" y="-351.0" font-size="24" text-anchor="start" fill="black">kodu</text>
<circle cx="1016.7" cy="47.3" r="20" fill="rgb(0, 162, 232)" />
<text x="1036.7" y="27.3" font-size="24" text-anchor="start" fill="black">costco</text>
<circle cx="945.8" cy="-0.0" r="20" fill="rgb(0, 162, 232)" />
<text x="965.8" y="-20.0" font-size="24" text-anchor="start" fill="black">maksimarket</text>
<circle cx="614.8" cy="94.6" r="20" fill="rgb(0, 162, 232)" />
<text x="634.8" y="74.6" font-size="24" text-anchor="start" fill="black">euronics</text>
<circle cx="331.0" cy="47.3" r="20" fill="rgb(0, 162, 232)" />
<text x="351.0" y="27.3" font-size="24" text-anchor="start" fill="black">bauhaus</text>
<circle cx="-94.6" cy="189.2" r="20" fill="rgb(0, 162, 232)" />
<text x="-74.6" y="169.2" font-size="24" text-anchor="start" fill="black">kontor</text>
<circle cx="94.6" cy="165.5" r="20" fill="rgb(0, 162, 232)" />
<text x="114.6" y="145.5" font-size="24" text-anchor="start" fill="black">loomaaed</text>

</svg>
